<?xml version="1.0" encoding="UTF-8"?>
<svg id="_レイヤー_2" data-name="レイヤー 2" xmlns="http://www.w3.org/2000/svg" xmlns:xlink="http://www.w3.org/1999/xlink" viewBox="0 0 492.69 756.33">
  <defs>
    <style>
      .cls-1 {
        fill: #e26917;
      }

      .cls-1, .cls-2, .cls-3, .cls-4, .cls-5, .cls-6, .cls-7, .cls-8, .cls-9, .cls-10, .cls-11, .cls-12, .cls-13, .cls-14, .cls-15, .cls-16, .cls-17, .cls-18, .cls-19, .cls-20, .cls-21, .cls-22, .cls-23 {
        stroke-width: 0px;
      }

      .cls-2 {
        fill: #b2955b;
      }

      .cls-3 {
        fill: #ffec64;
      }

      .cls-4 {
        fill: #262626;
      }

      .cls-5 {
        fill: #515150;
      }

      .cls-6 {
        fill: #ffe14d;
      }

      .cls-7 {
        fill: #ff9739;
      }

      .cls-8 {
        fill: none;
      }

      .cls-9 {
        fill: #e0bb68;
      }

      .cls-10, .cls-15 {
        fill: #791628;
      }

      .cls-11 {
        fill: #1e2672;
      }

      .cls-12 {
        fill: #ddc84b;
      }

      .cls-13 {
        fill: #fff;
      }

      .cls-14 {
        fill: #3a1919;
      }

      .cls-15 {
        fill-rule: evenodd;
      }

      .cls-16 {
        fill: #a31e36;
      }

      .cls-24 {
        clip-path: url(#clippath);
      }

      .cls-17 {
        fill: #605555;
      }

      .cls-18 {
        fill: #d6d6d6;
      }

      .cls-19 {
        fill: #938282;
      }

      .cls-20 {
        fill: #2e3499;
      }

      .cls-21 {
        fill: #c6b44b;
      }

      .cls-22 {
        fill: #cecece;
      }

      .cls-23 {
        fill: #ea911b;
      }
    </style>
    <clipPath id="clippath">
      <path class="cls-8" d="m413.72,354.29c-1-2.34-3.07-3.9-5.39-4.35,1.29-1.99,1.59-4.56.59-6.9-1.6-3.75-5.93-5.49-9.68-3.89,0,0-3.76.75-5.49,5.93l-19.99,3.27-3.18,1.36-16.2,12.16c-4.94-2.33-8.08-.14-8.08-.14-3.75,1.6-5.49,5.93-3.89,9.68,1,2.34,3.07,3.9,5.39,4.35-1.29,1.99-1.59,4.56-.59,6.9s3.07,3.9,5.39,4.35c-1.29,1.99-1.59,4.56-.59,6.9,1,2.34,3.07,3.9,5.39,4.35-1.28,1.99-1.59,4.56-.59,6.9,1.56,3.66,5.74,5.4,9.43,3.98.1.47.24.93.43,1.38,1.6,3.75,5.93,5.49,9.68,3.89,1.2-.51,2.2-1.31,2.94-2.28.03.07.05.14.08.21,1.6,3.75,5.93,5.49,9.68,3.89,1.43-.61,2.55-1.62,3.32-2.84,1.66,1.38,3.87,1.98,6.05,1.58h0s0,0,0,0c.25-.05.5-.1.74-.17.27-.08.55-.17.82-.28h0s.07-.04.1-.05c.04-.01.07-.02.11-.04h0c.27-.11.52-.25.77-.39.22-.13.43-.27.64-.42,0,0,0,0,0,0h0c1.79-1.29,2.9-3.3,3.05-5.46,1.41.29,2.92.18,4.35-.43,3.75-1.6,5.49-5.93,3.89-9.68-.03-.07-.07-.13-.1-.2,1.21.13,2.48-.03,3.68-.55,3.75-1.6,5.49-5.93,3.89-9.68-.19-.45-.43-.88-.7-1.27,3.58-1.68,5.22-5.9,3.65-9.56-1-2.34-3.07-3.9-5.39-4.35,1.28-1.99,1.59-4.56.59-6.9s-3.07-3.9-5.39-4.35c1.29-1.99,1.59-4.56.59-6.9Z"/>
    </clipPath>
  </defs>
  <g id="_レイヤー_1-2" data-name="レイヤー 1">
    <g>
      <g>
        <path class="cls-10" d="m144.78,386.43c6.66,9.82,5.09,39.1,10.69,48.39l-52.84,34.14c-6.68,5.51-26.89-5.04-29.19-15.36-3.06-13.73-3.23-32.03,11.54-46.53,30.85-30.27,57.72-23.7,59.8-20.64Z"/>
        <path class="cls-14" d="m97.56,474.47c-2.36,0-5-.48-7.83-1.46-8.64-2.97-18.35-10.29-20.19-18.54-4.53-20.32-.15-37.69,12.65-50.25,24.94-24.47,46.72-25.2,54.93-24.38,2.59.26,8.84,1.2,10.98,4.36,4.04,5.96,5.27,16.49,6.57,27.63.99,8.49,2.02,17.27,4.23,20.94,1.11,1.85.56,4.25-1.26,5.42l-52.67,34.03c-1.93,1.5-4.45,2.26-7.41,2.26Zm35.66-86.76c-9.79,0-26.66,3.8-45.43,22.22-10.88,10.67-14.39,25.07-10.44,42.8.99,4.44,7.85,10.27,14.98,12.72,4.03,1.39,6.8,1.21,7.75.43.12-.1.25-.19.38-.27l49.95-32.27c-1.9-5.31-2.77-12.78-3.68-20.59-1.05-8.99-2.24-19.15-5.01-23.7-1.04-.56-4.03-1.34-8.49-1.34Zm8.25.97s0,0,0,0c0,0,0,0,0,0h0Z"/>
      </g>
      <path class="cls-7" d="m138.75,298.23l-12.06,13.03c-18.67,12.98-40.33,24.46-50.38,26.7-1.6.35-2.96,1-4.05,1.91-2.23,1.85-3.22,4.81-2.54,7.59.31,1.28.96,2.45,1.87,3.4,1.08,1.2,2.14,2.11,3.41,2.97,9.74,6.57,29.45,6.76,55.18-.11l6.85-1.83c-4.43-15.91-10.21-32.95,1.73-53.66Z"/>
      <path class="cls-1" d="m135.27,299.91l-12.06,13.03c-9.05,6.29-19.06,12.51-27.86,17.22,1.76,19.44-8.07,28.26-8.07,28.26,8.58-.37,28.22-.04,39.4-3.03l6.85-1.83c-4.43-15.91-10.21-32.95,1.73-53.66Z"/>
      <path class="cls-14" d="m96.68,362.83c-10.18,0-18.33-1.89-23.94-5.67-1.55-1.05-2.85-2.18-4.11-3.57-1.37-1.44-2.34-3.23-2.81-5.16-1.04-4.26.48-8.82,3.87-11.63,1.58-1.32,3.51-2.24,5.74-2.73,9.39-2.09,30.68-13.41,48.61-25.83l11.77-12.71c1.38-1.5,3.67-1.71,5.31-.5,1.64,1.21,2.11,3.46,1.09,5.22-10.48,18.16-6.2,33.36-2.05,48.07l.71,2.52c.29,1.03.15,2.13-.38,3.06-.53.93-1.41,1.6-2.44,1.88l-6.85,1.83c-13.08,3.49-24.73,5.24-34.51,5.24Zm31.68-47.86c-19.2,13.28-40.65,24.56-51.2,26.9-.96.21-1.76.58-2.36,1.08-1.06.88-1.53,2.27-1.22,3.57.15.59.45,1.15.87,1.59.03.03.05.06.08.09.84.94,1.65,1.64,2.68,2.34,8.77,5.92,28.18,5.67,51.9-.67l2.94-.79c-2.9-10.32-5.82-21.55-3.7-34.11Z"/>
      <path class="cls-7" d="m368.51,605.89c-12.74,8.77-25.19,15.08-36.99,19.63l-.76,1.39c-26.78,49-84.91,86.67-135.21,87.62-25.07.45-44.5-8.97-54.87-26.42-13.76-23.13-35.28-31.54-49.43-27.9-10.35,2.67-16.51,11.39-16.92,23.93-.35,10.82,8.24,24.2,23.55,36.72,20.89,17.08,53.81,31.47,87.32,31.47,8.29,0,16.63-.88,24.82-2.82,69.54-16.47,133.22-70.69,154.85-131.86l3.76-11.86s-.09.06-.13.09Z"/>
      <path class="cls-1" d="m360.62,611.02c-24.9,56.7-85.15,105.65-150.6,121.15-8.19,1.94-16.53,2.82-24.82,2.82-33.51,0-66.43-14.39-87.32-31.47-11.47-9.38-19.16-19.24-22.16-28.14-.82,2.65-1.29,5.58-1.39,8.76-.35,10.82,8.24,24.2,23.55,36.72,20.89,17.08,53.81,31.47,87.32,31.47,8.29,0,16.63-.88,24.82-2.82,69.54-16.47,133.21-70.69,154.85-131.86l3.76-11.86s-.09.06-.13.09c-2.64,1.82-5.27,3.53-7.88,5.14Z"/>
      <path class="cls-14" d="m185.2,756.33c-37.05,0-70.71-16.72-89.85-32.37-16.29-13.32-25.41-27.88-25.02-39.95.46-14.24,7.9-24.58,19.92-27.68,15.6-4,39.12,4.92,53.87,29.73,9.63,16.21,27.88,24.9,51.36,24.47,48.97-.93,105.62-37.71,131.77-85.54l.76-1.4c.45-.83,1.19-1.47,2.07-1.81,12.5-4.83,24.66-11.28,36.14-19.18.04-.03.14-.1.17-.12,1.41-.96,3.27-.92,4.64.1,1.37,1.02,1.94,2.79,1.42,4.42l-3.76,11.86s-.03.08-.04.12c-22.07,62.38-86.92,117.66-157.7,134.42-8.21,1.94-16.87,2.93-25.74,2.93Zm-87.09-92.96c-2.07,0-4.04.24-5.87.71-8.62,2.22-13.56,9.39-13.91,20.19-.3,9.42,7.95,21.94,22.08,33.5,18.08,14.77,49.84,30.56,84.79,30.56,8.25,0,16.29-.91,23.9-2.71,68.26-16.16,130.75-69.31,151.98-129.24l.37-1.17c-8.76,5.31-17.85,9.83-27.12,13.51l-.06.12c-27.41,50.16-87.02,88.72-138.64,89.7-.6.01-1.21.02-1.8.02-25.63,0-45.67-10.04-56.59-28.4-10.91-18.34-26.8-26.78-39.13-26.78Z"/>
      <path id="silhouette" class="cls-6" d="m367.95,621.24c22.36-15.46,50.33-50.34,56.91-128.79,4.07-48.46-1.61-103.23-14.45-139.54-3.75-10.59-8.09-20.74-13.3-30.09-20.69-37.15-43.47-52.03-43.49-52.04-1.27-.97-2.55-1.92-3.86-2.85-1.76-1.27-3.55-2.52-5.4-3.72,0,0,0,0-.01,0,0,0,0,0-.01,0-20.79-13.31-44.21-20.45-69.62-21.22h0s0,0,0,0c-2.09-.06-4.2-.1-6.28-.1-60.51,0-123.04,25.67-147.39,71.79-19.36,36.66,7.08,46.95,9.21,49.39,10.71,9.58-22.11,115.97-22.11,115.97-17.14,1.99-46.18,14.14-49.9,41.83-.05.36,1.2,5.8,1.78,8.14.03.12.05.25.09.37.17.67.34,1.34.51,2.01-6.38-4.61-13.25-7.06-19.97-7.06-7.65,0-14.71,3.28-19.36,8.99-5.36,6.59-7.18,15.69-5.13,25.63,4.87,23.56,45.04,67.51,73.31,74.3,2.36.57,4.54.85,6.48.85,4.65,0,8.08-1.63,10.19-4.85,3.69-5.64,2.53-14.91.75-21.23,62.89,59.56,167.3,42.74,167.3,42.74h.4c14.57,0,31.18-1.36,56.24-10.77,25.06-9.42,37.12-19.72,37.12-19.72Z"/>
      <path class="cls-23" d="m423.19,412.41c-3.68-9.14-8.09-36.32-13.19-44.71-1.15-4.03-2.38-7.91-3.68-11.59-3.75-10.59-8.09-20.74-13.3-30.09-16.25-29.18-33.79-44.62-40.58-49.9,6.18,7.53,12.94,17.05,19.49,28.81,5.21,9.35,9.55,19.49,13.3,30.09,2.38,6.73,4.76,14.3,7.02,22.47-109.3,22.86-189.69,46.01-189.69,46.01-34.57-1.13-77.12-3.14-77.12-3.14,0,1.64-2.72,11.05-6.47,23.23-.34,1.44-.7,2.91-1.06,4.42-5.5,22.55-6.84,44.34-8.96,51.49-.96.16-1.96.35-2.99.57.11.03-18.89,10.03-18.89,10.03,10,12,36.93,26.55,118,38,77.7,7.89,148.44,4.69,194.98-4.06-11.33,48.64-32.57,73.08-50.28,85.32,0,0-12.06,10.31-37.12,19.72-25.06,9.42-56.63,10.77-56.63,10.77,0,0-111.41,10.81-174.3-48.74,1.78,6.31,2.94,15.59-.75,21.23-2.1,3.22-5.53,4.85-10.19,4.85-1.94,0-4.12-.29-6.48-.85-9.89-2.37-21.23-9.3-32.01-18.31,15.3,18.21,36.3,35.37,53.1,39.4,2.36.57,4.54.85,6.48.85,4.65,0,8.08-1.63,10.19-4.85,3.69-5.64,2.53-14.91.75-21.23,62.89,59.56,167.3,42.74,167.3,42.74h.4c14.57,0,31.18-1.36,56.24-10.77,25.06-9.42,37.12-19.72,37.12-19.72,19.89-13.75,46.99-42.01,56.76-103.48,2.55-.66-2.33-2.14,0-2.84,1.05-7,1-13.74,1.66-21.57,2.82-33.57,6.53-52.6.91-84.15Z"/>
      <path class="cls-23" d="m342.59,272.65s35.5,47.1-39.24,74.24l93.76-24.07s-9.2-29.77-54.53-50.17Z"/>
      <path class="cls-14" d="m240.4,661.94c-7.97,0-16.98-.33-26.65-1.25-29.02-2.77-69.05-11.61-101.19-37.44.13,4.48-.54,9.31-3.07,13.17-1.99,3.04-5.95,6.66-13.53,6.66-2.25,0-4.75-.32-7.41-.96-30.02-7.21-71.1-52.27-76.29-77.38-2.31-11.14-.2-21.43,5.94-28.97,5.42-6.65,13.6-10.46,22.47-10.46,4.64,0,9.36,1.03,13.96,3.03-.44-2.23-.39-2.67-.34-3.02,4-29.8,33.55-42.08,50.76-44.9,2.12-7.15,8.46-28.93,13.96-51.49,12.59-51.64,9.02-59.12,8.47-59.89-.03-.03-.06-.05-.09-.08-.23-.16-.79-.5-1.25-.77-6.72-4.03-27.16-16.3-8.63-51.39,14.79-28.01,43.53-45.36,65.04-54.98,26.92-12.04,58.23-18.95,85.88-18.95h0c2.12,0,4.28.03,6.41.1,26.14.79,50.25,8.14,71.66,21.85,0,0,.01,0,.02,0,.01,0,.03.02.04.02,1.69,1.1,3.45,2.32,5.55,3.83,1.14.81,2.37,1.72,3.84,2.84,2.02,1.36,24.42,17,44.66,53.35,5.01,9,9.45,19.04,13.58,30.7,13.02,36.8,18.78,92.23,14.67,141.21-6.7,79.86-35.46,115.66-58.47,131.64-1.63,1.35-14.01,11.21-38.14,20.29-25.8,9.7-42.95,11.03-57.64,11.03h-.09c-2.31.35-15.33,2.2-34.1,2.2Zm-133.5-52.94c1,0,1.99.37,2.75,1.1,31.61,29.93,74.36,39.69,104.66,42.61,33.1,3.19,59-.87,59.26-.91.21-.03.47-.05.64-.05h.4c13.93,0,30.22-1.27,54.82-10.52,23.98-9.01,35.82-18.93,35.93-19.03.1-.09.21-.17.32-.25,21.62-14.94,48.75-48.9,55.2-125.84,4.02-47.94-1.57-102.06-14.24-137.87-3.97-11.23-8.23-20.87-13.02-29.47-19.83-35.61-41.29-50.05-42.2-50.65-.06-.04-.12-.08-.17-.12-1.5-1.14-2.69-2.02-3.81-2.81-2.01-1.45-3.67-2.59-5.23-3.62-.01,0-.02-.02-.04-.02-20.17-12.91-42.91-19.84-67.57-20.59-2.05-.06-4.12-.09-6.17-.09-52.63,0-120.83,26.05-143.85,69.66-14.99,28.39-.51,37.08,5.68,40.79,1.23.74,2.08,1.25,2.75,1.94,2.54,2.38,4.73,7.46,2.22,25.85-1.4,10.31-4.15,23.93-8.16,40.49-6.8,28.07-15.02,55.31-15.1,55.58-.46,1.53-1.78,2.63-3.37,2.82-16.72,1.94-42.72,13.63-46.32,37.86.25,1.3,1.1,5.03,1.63,7.17l.06.28c.18.74.35,1.39.52,2.04.43,1.63-.21,3.36-1.61,4.32-1.39.96-3.23.93-4.6-.05-5.71-4.12-11.81-6.3-17.62-6.3-6.45,0-12.37,2.74-16.26,7.51-4.59,5.63-6.12,13.55-4.31,22.3,4.56,22.06,43.77,64.85,70.33,71.22,2.05.49,3.92.74,5.54.74,4.35,0,5.98-1.73,6.84-3.04,2.74-4.19,1.92-12.02.25-17.96-.49-1.73.24-3.58,1.78-4.51.64-.39,1.36-.58,2.07-.58Zm-44.67-83.5h0s0,0,0,0Zm65.29-156.43s0,0,.01,0c0,0,0,0-.01,0Zm-.33-.34s.08.09.13.14c-.04-.05-.09-.09-.13-.14Z"/>
      <path class="cls-16" d="m402.84,336.66c-114.11,23.48-199.18,47.98-199.18,47.98-34.57-1.13-77.12-3.14-77.12-3.14,0,5.25-27.9,93.16-27.9,93.16,5.89,15.99,25.8,25.87,106.87,37.31,109.51,11.12,206.12-3.55,239.39-19.7,0,0,2.09-97.64-42.06-155.61Z"/>
      <path class="cls-15" d="m348.3,434.43c-25.39,9.21-138.57-10.59-138.57-10.59l-1.45,13.81,17.89,8.97c.81.4,1.32,1.22,1.34,2.12.08,2.66.73,8.28,4.58,10.52,11.25,6.54,81.45,11.34,118.67.64,37.03-10.64,55.46-38.54,50.8-46.69-3.64-6.36-30.54,12.99-53.26,21.23Z"/>
      <path class="cls-14" d="m282.39,519.87c-24.34,0-50.29-1.18-77.29-3.92-.05,0-.1-.01-.16-.02-40.5-5.72-65.93-11.01-82.46-17.17-15.62-5.81-23.87-12.61-27.6-22.72-.31-.83-.33-1.75-.06-2.59,10.45-32.94,27.19-86.96,27.71-92.06.03-1.05.47-2.06,1.24-2.79.79-.75,1.86-1.15,2.95-1.1.42.02,42.4,2,76.44,3.12,7.91-2.25,90.93-25.67,198.87-47.88,1.51-.31,3.06.27,3.99,1.49,23.32,30.61,33.73,72.01,38.36,101.34,4.99,31.65,4.54,55.77,4.52,56.78-.03,1.5-.9,2.86-2.25,3.51-24.1,11.7-85.66,24-164.25,24Zm-76.4-11.87c109.97,11.16,202.08-3.7,234.92-18.28-.07-15.25-2.27-97.35-39.76-148.62-111.4,23.02-195.55,47.15-196.39,47.39-.4.12-.81.16-1.24.15-28.58-.94-62.99-2.49-73.78-2.99-3.83,15.86-20.64,69.22-26.87,88.85,5.71,13.1,25.01,22.47,103.11,33.5Zm-83.45-126.57s0,.05,0,.07c0-.02,0-.04,0-.07Z"/>
      <g>
        <path class="cls-20" d="m119.88,371.23l2.54,18.36c.12.93.87,1.64,1.8,1.73l66.2,5.06s.03-.19.07-.54c1.3-11.03-6.82-20.95-17.88-22.01l-50.55-4.85c-1.28-.12-2.34.98-2.17,2.25Z"/>
        <path class="cls-14" d="m190.41,400.38c-.1,0-.2,0-.3-.01l-66.2-5.06c-2.87-.27-5.09-2.4-5.46-5.2l-2.53-18.33s0-.02,0-.03c-.24-1.82.36-3.63,1.63-4.95,1.28-1.32,3.07-1.97,4.89-1.8l50.55,4.85c6.47.62,12.28,3.75,16.36,8.8,4.04,5.01,5.86,11.28,5.11,17.65-.05.46-.1.72-.1.72-.33,1.94-2.01,3.35-3.95,3.35Zm-64.25-12.92l60.39,4.62c-.28-3.04-1.46-5.95-3.43-8.39-2.72-3.37-6.59-5.45-10.9-5.86l-48.03-4.61,1.97,14.25Zm.22,1.56v.02s0-.02,0-.02Z"/>
      </g>
      <path class="cls-20" d="m403.11,320.53l5.57,16.53c.04.93-.56,1.77-1.46,2.02l-216.8,57.29s-1.38-21.8,14.28-27.16l195.88-50.51c1.24-.35,2.48.55,2.54,1.83Z"/>
      <path class="cls-11" d="m330.94,336.66s6.2,5.84,2.68,19.62l75.05-19.22-5.57-16.53-72.16,16.12Z"/>
      <path class="cls-14" d="m190.41,400.38c-.83,0-1.65-.26-2.34-.75-.97-.7-1.58-1.8-1.65-2.99-.06-1.01-1.36-24.92,16.98-31.2.1-.03.2-.06.3-.09l195.88-50.51c1.69-.48,3.56-.14,5.05.93,1.3.94,2.16,2.33,2.41,3.88l5.44,16.14c.12.35.19.72.2,1.09.13,2.81-1.67,5.31-4.38,6.06l-216.86,57.31c-.34.09-.68.13-1.02.13Zm15.44-27.33c-8.31,2.94-10.63,12.22-11.25,18.08l209.43-55.34-4.29-12.74-193.89,50Zm195.8-50.49l-.08.02s.05-.01.08-.02Z"/>
      <path class="cls-14" d="m187.97,509.21h-.08c-1.9-.04-3.41-1.62-3.37-3.52l2.44-109.39c.04-1.88,1.58-3.37,3.44-3.37h.08c1.9.04,3.41,1.62,3.37,3.52l-2.44,109.39c-.04,1.88-1.58,3.37-3.44,3.37Z"/>
      <g>
        <g>
          <path class="cls-3" d="m200.46,448.7c-13.53,0-25.86-1.61-36.45-4.81-1.75-.53-2.74-2.37-2.21-4.12.53-1.75,2.37-2.74,4.12-2.21,11.54,3.48,31.55,6.75,61.34,2.55,1.81-.26,3.48,1,3.74,2.81.26,1.81-1,3.48-2.81,3.74-9.65,1.36-18.94,2.04-27.73,2.04Z"/>
          <g>
            <circle class="cls-3" cx="158.61" cy="439.46" r="8.79"/>
            <path class="cls-21" d="m158.62,450.75c-.18,0-.37,0-.55-.01-6.22-.3-11.03-5.6-10.73-11.82.3-6.21,5.58-11.04,11.82-10.73,6.22.3,11.03,5.6,10.73,11.82-.29,6.03-5.29,10.75-11.27,10.75Zm0-17.58c-3.33,0-6.12,2.62-6.28,5.99-.17,3.46,2.51,6.42,5.98,6.58,3.49.14,6.42-2.52,6.58-5.98.17-3.46-2.51-6.42-5.98-6.58-.1,0-.21,0-.31,0Z"/>
          </g>
          <g>
            <circle class="cls-3" cx="234.09" cy="443.47" r="8.79"/>
            <path class="cls-21" d="m234.1,454.75c-.18,0-.37,0-.55-.01-6.22-.3-11.03-5.6-10.73-11.82.3-6.21,5.6-11.04,11.82-10.73,6.22.3,11.03,5.6,10.73,11.82h0c-.29,6.03-5.29,10.75-11.27,10.75Zm0-17.58c-3.33,0-6.12,2.62-6.28,5.99-.17,3.46,2.51,6.42,5.98,6.58,3.5.15,6.42-2.52,6.58-5.98.17-3.46-2.51-6.42-5.98-6.58-.1,0-.21,0-.31,0Zm8.78,6.71h0,0Z"/>
          </g>
        </g>
        <g>
          <path class="cls-3" d="m190.11,414.82c-9.24,0-17.84-.88-25.59-2.64-1.78-.4-2.9-2.18-2.49-3.96.4-1.78,2.18-2.9,3.96-2.49,11.74,2.67,31.91,4.52,61.37-1.76,1.78-.39,3.54.76,3.93,2.54.38,1.79-.76,3.54-2.54,3.93-13.67,2.92-26.69,4.38-38.63,4.38Z"/>
          <g>
            <circle class="cls-3" cx="158.85" cy="408.18" r="8.79"/>
            <path class="cls-21" d="m158.85,419.47c-6.13,0-11.17-4.93-11.28-11.08-.12-6.22,4.85-11.38,11.08-11.49.07,0,.14,0,.21,0,6.13,0,11.17,4.93,11.28,11.08.06,3.01-1.07,5.87-3.16,8.04-2.09,2.17-4.91,3.4-7.92,3.45-.07,0-.14,0-.21,0Zm0-17.58s-.08,0-.12,0c-1.68.03-3.25.71-4.41,1.92-1.17,1.21-1.79,2.8-1.76,4.48.06,3.47,2.92,6.24,6.4,6.17,1.68-.03,3.25-.71,4.41-1.92,1.17-1.21,1.79-2.8,1.76-4.48h0c-.06-3.43-2.87-6.17-6.28-6.17Z"/>
          </g>
          <g>
            <circle class="cls-3" cx="234.42" cy="406.79" r="8.79"/>
            <path class="cls-21" d="m234.41,418.08c-2.93,0-5.71-1.12-7.83-3.16-2.17-2.09-3.4-4.91-3.45-7.92-.05-3.01,1.07-5.87,3.16-8.04,2.09-2.17,4.91-3.4,7.92-3.45,3.01-.05,5.87,1.07,8.04,3.16,2.17,2.09,3.4,4.91,3.45,7.92.05,3.01-1.07,5.87-3.16,8.04s-4.9,3.4-7.92,3.45c-.07,0-.14,0-.21,0Zm.01-17.58s-.08,0-.12,0c-1.68.03-3.25.71-4.41,1.92-1.17,1.21-1.79,2.8-1.76,4.48.03,1.68.71,3.25,1.92,4.41,1.21,1.17,2.8,1.81,4.48,1.76,3.47-.06,6.23-2.93,6.17-6.4-.03-1.68-.71-3.25-1.92-4.41-1.18-1.14-2.72-1.76-4.36-1.76Z"/>
          </g>
        </g>
        <g>
          <path class="cls-3" d="m197.71,482.52c-13.53,0-25.86-1.61-36.45-4.81-1.75-.53-2.74-2.37-2.21-4.12s2.37-2.74,4.12-2.21c11.54,3.48,31.55,6.75,61.34,2.55,1.82-.26,3.48,1,3.74,2.81.26,1.81-1,3.48-2.81,3.74-9.65,1.36-18.94,2.04-27.73,2.04Z"/>
          <g>
            <circle class="cls-3" cx="155.86" cy="473.28" r="8.79"/>
            <path class="cls-21" d="m155.87,484.57c-.18,0-.37,0-.55-.01-6.22-.3-11.03-5.6-10.73-11.82.3-6.22,5.58-11.02,11.82-10.73,6.22.3,11.03,5.6,10.73,11.82-.29,6.03-5.29,10.75-11.27,10.75Zm0-17.58c-3.33,0-6.12,2.62-6.28,5.99-.17,3.46,2.51,6.42,5.98,6.58,3.5.16,6.42-2.52,6.58-5.98.17-3.46-2.51-6.42-5.98-6.58-.1,0-.21,0-.31,0Z"/>
          </g>
          <g>
            <circle class="cls-3" cx="231.35" cy="477.29" r="8.79"/>
            <path class="cls-21" d="m231.35,488.57c-.18,0-.37,0-.55-.01-3.01-.14-5.79-1.45-7.81-3.69-2.03-2.23-3.06-5.12-2.92-8.13.3-6.22,5.6-11.01,11.82-10.73,3.01.14,5.79,1.45,7.81,3.69,2.03,2.23,3.06,5.12,2.92,8.13-.29,6.03-5.29,10.74-11.27,10.74Zm0-17.58c-3.33,0-6.12,2.62-6.28,5.99-.08,1.68.5,3.29,1.62,4.53,1.13,1.24,2.67,1.97,4.35,2.05,3.5.15,6.42-2.52,6.58-5.98h0c.08-1.68-.5-3.29-1.62-4.53-1.13-1.24-2.67-1.97-4.35-2.05-.1,0-.21,0-.31,0Z"/>
          </g>
        </g>
      </g>
      <path class="cls-14" d="m180.31,308.2c-7.09,5.32-4.95,11.89,2.97,12.88,7.93.99,8.54,1.51,15.85-3.96,7.92-5.94,8.91-15.85,0-14.86-8.91.99-14.86,2.97-18.82,5.94Z"/>
      <circle class="cls-14" cx="150.59" cy="312.16" r="8.91"/>
      <circle class="cls-14" cx="253.61" cy="287.4" r="8.91"/>
      <path class="cls-14" d="m134.67,369.35c-2.21,0-4-1.79-4-4s1.79-4,4-4c9.78,0,40.34-11.69,50.05-29.33.53-.96,1.42-1.66,2.48-1.94,1.06-.28,2.18-.11,3.12.46,9.83,6.04,20.68,8.97,33.17,8.97s25.17-3.01,37.15-6.63c.04-.01.08-.03.13-.04,1.82-.55,3.63-1.12,5.42-1.69.03,0,.05-.02.08-.02h0c2.11-.68,4.36.49,5.03,2.59s-.49,4.36-2.59,5.03c-14.23,4.55-29.56,8.77-45.2,8.77-12.58,0-23.72-2.68-33.92-8.17-13.06,18.76-43.77,30.01-54.9,30.01Z"/>
      <path class="cls-6" d="m376.4,549.85c-29.43-28.49-91.24-21.47-111.25,29.4-11.5,29.24-11.53,47.28-11.53,47.28,0,0,66.83,7.92,99.15-26.74,31.43-33.7,23.64-49.94,23.64-49.94Z"/>
      <path class="cls-14" d="m266.83,581.79c-.54,0-1.09-.11-1.61-.34-2.02-.89-2.94-3.25-2.05-5.27,10.91-24.74,31.79-41.78,57.29-46.77,22.8-4.46,45.38,1.56,60.4,16.11,1.59,1.54,1.63,4.07.09,5.66-1.54,1.59-4.07,1.63-5.66.09-13.14-12.73-33.07-17.97-53.3-14.01-22.9,4.48-41.67,19.84-51.51,42.15-.66,1.5-2.13,2.39-3.66,2.39Z"/>
      <path class="cls-14" d="m113.48,600.93c-3.39-7.74-29.64-61.98-46.31-74.8-2.23-1.72-4.56-3.23-6.94-4.52-10.94-13.72-25.44-21.58-37.12-20.06-5.34.7-12.59,3.63-16.87,13.63-1.03,2.16-12.77,28.05-1.12,65.69,4.44,14.36,10.84,17,17.03,19.55,7.01,2.89,14.96,6.16,24.98,30.61.05.12.11.25.17.37,4.01,7.51,14.75,19.64,29.75,19.64,2.65,0,5.43-.38,8.32-1.23,11.9-3.48,23.55-7.67,28.2-14.71,7.06-10.71,3.03-27.03-.09-34.17Z"/>
      <g>
        <path class="cls-19" d="m84.62,582.47c-2.31-3.91-11.38-13.72-13.59-27.32-6.4-39.32-49.3-66.19-61.15-38.31,0,0-12.52,25.44-.95,62.85,8.76,28.31,22.73,3.1,41.9,49.82,0,0,12.33,23.36,33.42,16.46,28.09-9.19,19.03-31.94.37-63.5Z"/>
        <path class="cls-14" d="m76.65,651.23c-14.68,0-25.32-12.2-29.35-19.85-.06-.11-.12-.23-.16-.35-10.03-24.45-17.97-27.72-24.98-30.61-6.19-2.55-12.59-5.19-17.03-19.55-11.65-37.64.09-63.54,1.12-65.69,4.25-9.91,12.62-14.87,22.97-13.63,18.3,2.21,41.05,24.01,45.77,52.95,1.61,9.87,7.31,17.75,10.71,22.46,1.01,1.4,1.81,2.5,2.38,3.47h0c13.87,23.46,21.48,40.62,16.57,53.65-2.73,7.24-8.99,12.37-19.14,15.69-3.09,1.01-6.04,1.46-8.85,1.46Zm-22.2-23.44c1.09,1.98,11.58,19.94,28.56,14.38,7.7-2.52,12.32-6.09,14.14-10.91,3.77-10-3.66-25.92-15.97-46.76h0c-.38-.65-1.12-1.67-1.97-2.85-3.82-5.29-10.21-14.13-12.12-25.87-4.07-25.01-23.73-44.47-38.83-46.29-6.89-.83-11.83,2.17-14.69,8.91-.03.07-.06.14-.09.2-.11.23-11.63,24.62-.71,59.91,3.33,10.76,6.95,12.25,12.44,14.52,8.02,3.3,17.99,7.42,29.25,34.77Z"/>
      </g>
      <path class="cls-14" d="m77.13,575.64c-1.03-1.57-2.35-17.73-5.31-17.64-19.4,18.41-53.53,32-55.71,31.14-2.37.41-2.79,3.93-.55,4.86,0,0,10.88,4.06,14.2,6.6,1.21.92,31.32-7.28,47.37-24.96Z"/>
      <path class="cls-14" d="m103.23,615.46l-7.14-12.37c-.47-.81-1.37-1.32-2.33-1.28l-11.03.36c-.41.01-.81.12-1.17.32l-28.97,15.79c-1.24.67-1.68,2.2-.98,3.4l9.62,16.67c3.73,6.46,10.6,10.13,17.61,10.13,3.22,0,6.46-.77,9.44-2.4l7.61-4.15c9.48-5.17,12.77-17.05,7.33-26.48Z"/>
      <path class="cls-7" d="m350.18,268.48c-.62,0-1.17.02-1.61.06-1.54.13-2.9,1.04-3.6,2.42-.7,1.38-.63,3.02.17,4.33,1.71,2.79,5.26,6.57,9.51,10.12l1.12.95c31.99,27.28,56.41,33.01,71.26,33.01,5.47,0,10.78-.76,15.78-2.26,23.11-6.94,37.4-21.45,43.06-32.71,2.46-4.91,2.83-8.16,2.83-9.67,0-2.28-1.73-4.2-4-4.43-3.15-.32-10.8-.47-23.39-.47-6.54,0-13.99.04-21.9.08-8.99.05-18.59.09-28.17.09-17.67,0-42.96-.15-58.57-1.41-.86-.07-1.69-.1-2.48-.1h0Z"/>
      <path class="cls-1" d="m488.69,274.73c-.32-.03-57.64,54.91-137.54,2.04-16.35-10.82-6.17,2.23,4.61,10.26,52.45,45.98,101.91,41.84,130.1-1.96,3.11-7.33,9.18-8.21,2.83-10.34Z"/>
      <path class="cls-14" d="m278.51,585.99c-3.8-23.32-32.65-79.14-65.42-61.71-26.07,17.6-21.83,51.98-17.9,77.82,2.97,27.27-27.77,73.75,45.55,65.22,13.58-1.58,24.99-8.47,30.63-20.65,7.82-20.49,12.06-35.94,7.14-60.69Z"/>
      <path class="cls-14" d="m427.02,323.36c-15.52,0-40.93-5.89-73.85-33.96l-1.11-.94c-4.61-3.84-8.39-7.89-10.34-11.08-1.54-2.52-1.66-5.6-.33-8.23,1.34-2.63,3.89-4.35,6.83-4.6,1.33-.11,3.03-.1,4.75.04,15.45,1.25,40.64,1.4,58.25,1.4,9.6,0,19.03-.05,28.15-.09,7.92-.04,15.37-.08,21.92-.08,12.91,0,20.47.16,23.79.49,4.33.44,7.6,4.05,7.6,8.41,0,2.27-.57,6.1-3.26,11.46-6.04,12.01-21.16,27.45-45.49,34.75-5.38,1.61-11.07,2.43-16.93,2.43Zm-76.84-50.88c-.6,0-1.03.03-1.28.05-.16.01-.29.1-.36.24-.07.14-.06.3.02.44,1.47,2.4,4.79,5.9,8.66,9.13l1.14.97c31.08,26.5,54.49,32.06,68.67,32.06,5.08,0,10-.7,14.63-2.09,21.89-6.57,35.35-20.15,40.64-30.68,2.17-4.32,2.4-6.94,2.4-7.87,0-.23-.17-.42-.4-.45-2.96-.3-10.7-.45-22.99-.45-6.54,0-13.97.04-21.88.08-9.13.05-18.57.09-28.19.09-17.74,0-43.15-.15-58.89-1.42-.75-.06-1.48-.09-2.16-.09Z"/>
      <path class="cls-14" d="m65.81,652.59c-10,0-18.43-6.79-22.11-13.36l-7.91-14.11c-1.08-1.93-.39-4.36,1.53-5.45l37.52-21.04c.53-.3,1.12-.47,1.72-.5.51-.14,1.04-.23,1.57-.25l11.03-.37c2.41-.11,4.73,1.18,5.95,3.35l7.14,12.73h0c6.4,11.42,2.92,23.07-8.87,29.68-.18.1-.36.18-.55.26-5.62,2.11-14.71,5.6-16.69,6.58-3.54,1.74-7.02,2.49-10.33,2.49Zm-21.08-27.9l5.96,10.62c3.13,5.57,11.84,12.57,21.93,7.61,2.83-1.39,14.7-5.87,17.12-6.78,7.69-4.43,9.71-11.21,5.54-18.64l-6.71-11.97-9.81.33c-.36.19-.75.32-1.14.39l-32.89,18.44Zm34.34-19h0s0,0,0,0Zm10.41-.19h-.03s.02,0,.03,0Z"/>
      <g>
        <path class="cls-19" d="m51.63,639.27c5.57,9.66,16.78,13.84,25.04,9.33l7.61-4.15c8.26-4.5,10.44-15.98,4.87-25.64l-8.36-14.5-37.52,20.45,8.36,14.5Z"/>
        <path class="cls-14" d="m69.48,654.4c-8.12,0-16.53-4.84-21.31-13.13l-8.36-14.5c-.54-.93-.68-2.04-.39-3.08.29-1.04.99-1.91,1.94-2.43l37.52-20.45c1.91-1.04,4.29-.37,5.38,1.51l8.36,14.5c3.51,6.09,4.53,13.14,2.78,19.35-1.45,5.17-4.72,9.36-9.2,11.8l-7.61,4.15c-2.84,1.55-5.95,2.28-9.11,2.28Zm-20.69-28.07l6.31,10.95h0c4.48,7.78,13.3,11.28,19.66,7.82l7.61-4.15c3.3-1.8,4.72-4.77,5.33-6.94,1.17-4.14.43-8.95-2.01-13.19l-6.41-11.12-30.49,16.62Z"/>
      </g>
      <g>
        <path class="cls-19" d="m201.19,517.86s-19.7,19.51-18.36,55.44c.94,25.21,15.19,7.23,11.49,54.42-1.7,21.66,11.48,34.38,41.13,34.9,9.28.16,15.45-22.74,20.25-62.16.51-4.19,2.12-12.59,0-30.5-4.28-36.25-29.2-72.42-54.51-52.1Z"/>
        <path class="cls-14" d="m235.57,666.62c-.06,0-.13,0-.19,0-17.26-.3-29.81-4.64-37.3-12.88-5.99-6.59-8.6-15.45-7.74-26.33,2.07-26.44-1.5-30.78-4.96-34.97-2.86-3.47-6.11-7.41-6.54-18.99-1.39-37.26,18.69-57.58,19.54-58.43.1-.1.2-.19.31-.28,8.56-6.87,17.89-8.54,26.99-4.82,18.6,7.61,31.18,35.72,34,59.56,1.97,16.69.8,25.46.17,30.17-.06.47-.12.9-.17,1.29-5.74,47.21-12.51,65.68-24.09,65.68Zm-31.69-145.8c-1.63,1.73-18.25,20.22-17.06,52.32.33,8.88,2.27,11.22,4.72,14.2,5.32,6.46,8.92,13.16,6.76,40.69-.67,8.59,1.24,15.43,5.69,20.32,5.95,6.55,16.56,10,31.52,10.27h.02c1.72,0,4.81-3.51,7.89-13.42,3.08-9.94,5.8-24.73,8.29-45.22.05-.42.11-.88.18-1.38.58-4.36,1.67-12.48-.18-28.17-2.92-24.68-15.42-47.51-29.08-53.1-6.26-2.56-12.58-1.39-18.76,3.5Z"/>
      </g>
      <path class="cls-14" d="m253.32,583.95c-.66-.48-1.51-.62-2.29-.38-27.68,8.73-66.09-3.38-66.48-3.5-.98-.31-2.06-.01-2.73.77-.67.78-.81,1.89-.35,2.82l6.27,12.6c.27.54.72.97,1.27,1.21.92.4,16.46,7.03,36.4,7.03,8.55,0,17.91-1.22,27.27-4.67,1.01-.37,1.68-1.33,1.68-2.41v-11.4c0-.82-.39-1.59-1.05-2.07Z"/>
      <path class="cls-14" d="m255.47,621.05c-.09-.87-.61-1.64-1.38-2.03s-1.7-.38-2.46.06l-10.16,5.89-39.35-2.25h0c-.68-.04-1.35.19-1.85.65-.51.45-.82,1.09-.85,1.77l-.75,13.44c-.72,12.86,8.37,23.37,21.17,24.09l10.26.57c.07,0,.13,0,.2,0,6.55-.14,11.99-2.6,16.16-7.29,11.52-12.99,9.14-33.8,9.03-34.89Z"/>
      <path class="cls-14" d="m257.99,620.63c-.26-1.1-1.22-1.9-2.36-1.97l-56.21-3.13c-.5-.03-1,.09-1.43.34l-11.95,6.92c-.98.57-1.47,1.72-1.21,2.82.26,1.1,1.22,1.9,2.36,1.97l56.21,3.13c.5.03,1-.09,1.43-.34l11.95-6.92c.98-.57,1.47-1.72,1.21-2.82Z"/>
      <g>
        <path class="cls-19" d="m209.14,663.92l11.39.64c25.51,1.42,24.47-35.99,24.47-35.99l-56.18-3.13s-2.08,37.24,20.32,38.49Z"/>
        <path class="cls-14" d="m221.96,668.59c-.54,0-1.09-.02-1.64-.05l-11.39-.64c-26.08-1.45-24.18-41.02-24.09-42.71.06-1.06.54-2.05,1.33-2.76.79-.71,1.84-1.07,2.89-1.01l56.18,3.13c2.08.12,3.72,1.8,3.78,3.88.03.92.5,22.68-10.91,33.77-4.35,4.23-9.78,6.38-16.14,6.38Zm-29.15-38.94c.22,8.88,2.28,29.47,16.56,30.27h0l11.39.64c4.82.27,8.66-1.06,11.76-4.08,6.08-5.92,8-17.33,8.41-24.15l-48.12-2.68Z"/>
      </g>
      <g>
        <path class="cls-14" d="m150.47,656.84c-.05,0-.1,0-.15,0-10.96-.22-22.24-2.21-32.61-5.76-2.85-.97-4.79-3.62-4.81-6.57,0-.78.12-1.55.37-2.27-.04-1.05.19-2.12.72-3.1,0,0,0-.02.01-.02,0,0,0,0,0,0,.59-1.07,1.47-1.89,2.49-2.42,6.01-12.05,10.05-21.93,10.89-26.7.1-.59.35-1.93.73-3.94-.69-1.34-.96-2.9-.68-4.45.29-1.62,1.12-3.03,2.29-4.07l.54-2.85c-.85-1.73-1.14-3.71-.8-5.65.36-2.03,1.38-3.85,2.86-5.2,1.49-7.85,3.25-17.1,5.19-27.28-1.14-1.87-1.59-4.12-1.19-6.37.41-2.3,1.69-4.33,3.49-5.72l2.12-11.11c-1.03-1.09-1.81-2.43-2.28-3.95-1.03-3.33-.49-7.49,1.32-10.13.59-.86,1.21-1.5,1.83-1.98,1.01-5.19,2.98-15.09,3.87-18.3.35-1.27.81-2.32,1.32-3.21-2.09-.94-3.56-2.92-3.81-5.27-.54-6.29.71-12.01,1.87-16.31l.05-.19c.58-2.02,1.18-4.12,2.19-6.31.14-.32.29-.58.42-.81.06-.1.12-.21.18-.3,1.78-2.74,4.48-3.97,6.65-4.58l.6-3.12c-.78-1.39-1.09-3.03-.8-4.68.31-1.73,1.22-3.22,2.51-4.26l7.88-41.25c-.74-1.37-1.04-2.98-.75-4.6.3-1.67,1.18-3.14,2.43-4.18l4.35-22.77c-1.35-1.63-3.03-4.29-2.92-7.39.07-2.08.97-4.03,2.52-5.47.04-.04.08-.08.13-.12,1.81-1.57,3.96-2.75,6.27-3.45l1.62-9.18c.18-.98.61-1.88,1.25-2.6l1.92-10.89c.24-1.4,1.02-2.62,2.2-3.44,1.16-.81,2.57-1.13,3.97-.88l3.55.63c1.4.24,2.62,1.02,3.44,2.2.82,1.17,1.13,2.59.88,4l-1.92,10.88c.34.88.46,1.86.29,2.85l-1.61,9.14c.71.54,1.38,1.14,2.01,1.79,4.13,4.39,4.71,9.6,1.55,13.14.74,1.18,1.39,2.87,1,5.06l-3.41,19.3c-.33,1.96-.66,3.86-.94,5.57-.14,1.06-.27,2.1-.39,3.12l-.1,1.05c-.15,1.62-.3,3.3-.6,5.03-.34,1.88-.71,3.54-1.13,5.12-.71,2.7-1.55,5.09-2.57,7.31-.82,1.72-2.27,2.92-3.92,3.47l-3.36,20.75c.85,1.42,1.2,3.13.9,4.86-.29,1.64-1.15,3.08-2.35,4.12l-4.19,25.82c.83,1.41,1.17,3.1.87,4.79-.29,1.65-1.13,3.08-2.31,4.11l-5.03,30.94c2.15,1.37,3.39,3.94,2.92,6.61-.46,2.6-2.42,4.57-4.83,5.17l-.11.67c.65.44,1.22,1,1.69,1.66.99,1.42,1.38,3.14,1.07,4.85-.45,2.54-2.32,4.47-4.65,5.12l-.26,1.62c.58.42,1.1.94,1.52,1.55.99,1.42,1.37,3.14,1.07,4.85-.44,2.47-2.22,4.36-4.46,5.06l-.29,1.79c.52.4.98.88,1.36,1.43.99,1.42,1.37,3.14,1.07,4.85-.42,2.4-2.12,4.25-4.27,5l-.63,3.88c.44.37.84.8,1.18,1.28.99,1.42,1.37,3.14,1.07,4.85-.41,2.32-2.01,4.13-4.06,4.92-.51,3.14-.98,5.98-1.39,8.5.75,1.37,1.04,2.99.76,4.6-.27,1.55-1.06,2.92-2.17,3.95-.33,2.01-.56,3.35-.66,3.95-.86,4.87-.45,15.53,1.08,28.8.79.85,1.34,1.93,1.53,3.14.17,1.11.02,2.2-.38,3.18-.01.76-.16,1.53-.43,2.27-1.01,2.72-3.66,4.53-6.62,4.53Zm-2.34-5.05h0,0Zm3.56-.03s.04,0,.07,0h-.07Zm-27.07-8.97c7.07,2.08,14.67,3.43,22.02,3.89-1.12-9.26-2.66-25.25-1.21-33.5.14-.79.49-2.91,1.03-6.16.11-.69.36-1.32.72-1.88-.16-.64-.19-1.33-.08-2.01.66-4,1.48-9.04,2.44-14.9.08-.5.24-.98.46-1.43-.07-.49-.07-.99.02-1.5l1.97-12.11c.08-.5.24-.98.46-1.43-.07-.49-.07-.99.02-1.5l1.67-10.23c.08-.5.24-.98.46-1.43-.07-.49-.07-.99.02-1.5l1.66-10.23c.08-.5.24-.98.46-1.43-.07-.49-.07-.99.02-1.5l1.53-9.44c.08-.5.24-.98.46-1.43-.07-.49-.07-.99.02-1.5l6.14-37.8c.11-.7.37-1.35.74-1.92-.17-.65-.21-1.35-.09-2.05l4.99-30.76c.11-.7.37-1.35.74-1.92-.17-.66-.21-1.35-.1-2.06l5.05-31.15c.42-2.57,2.72-4.38,5.32-4.19.06,0,.12.01.18.02.32-1.23.6-2.54.86-3.98.22-1.28.35-2.7.49-4.2l.11-1.15s0-.08.01-.12c.13-1.1.27-2.22.42-3.37,0-.06.02-.11.03-.17.29-1.74.62-3.69.97-5.73l1.57-8.87c-2.6-.55-4.32-3.05-3.89-5.69l.31-1.94c.24-1.45,1.08-2.67,2.24-3.41-.87-1.07-1.28-2.49-1.05-3.93l.07-.42c.31-1.83,1.6-3.33,3.35-3.92.37-.12.74-.28,1.08-.45-.07-.09-.16-.18-.24-.28-.61-.64-1.37-1.16-2.24-1.54-.6-.26-1.14-.63-1.58-1.07-.57.28-1.21.45-1.87.49-1.04.07-2.04.34-2.94.8.06.08.13.16.21.24.19.2.41.39.63.57,1.44,1.16,2.13,3.02,1.78,4.84l-5.31,27.8c-.13.69-.41,1.33-.79,1.89.15.66.17,1.35.04,2.05l-8.82,46.18c-.13.7-.41,1.34-.79,1.9.15.66.17,1.36.04,2.06l-1.71,8.94c-.13.7-.41,1.34-.8,1.9.15.67.17,1.37.04,2.06l-3.38,17.71c-.13.7-.41,1.34-.79,1.9.15.66.17,1.35.04,2.05l-.89,4.65c-.27,1.4-1.12,2.62-2.33,3.35-.07.12-.19.37-.31.8-.9,3.26-3.42,16.07-4.31,20.73-.31,1.63-1.41,2.97-2.87,3.62,0,.19.04.36.08.47,2.23.88,3.59,3.25,3.14,5.62l-3.16,16.56c-.28,1.44-1.17,2.67-2.4,3.39.89,1.12,1.26,2.59.99,4.04-2.29,12-4.34,22.79-6.02,31.63-.24,1.29-.98,2.41-2.03,3.15.71,1.07.98,2.39.73,3.68l-1.36,7.17c-.13.68-.39,1.31-.77,1.86.15.65.16,1.33.03,2.02-.61,3.24-1,5.36-1.14,6.14-1.43,8.09-8.38,22.67-12.61,31.05Zm-6.5,3.04s.07.02.1.03l-.1-.03Zm32.71-42.96s0,0,0,0c0,0,0,0,0,0Zm-15.14-2.67s0,0,0,0c0,0,0,0,0,0Zm6.86-76.62s0,0,0,0c0,0,0,0,0,0Zm27.04-34s0,0,0,0c0,0,0,0,0,0Zm-21.88-1.45s0,0,0,.01c0,0,0,0,0-.01Zm14.57-29.71h0,0Zm26.58-100.43s.02,0,.03,0h-.03Zm-5.06-.89s.01,0,.02,0h-.02Zm8.59-17.29v.02s0-.01,0-.02Zm-5.66-.99s0,.02,0,.03v-.03Z"/>
        <g>
          <path class="cls-18" d="m155.13,496.24s-2.55-.09-3.71,4.08-4.4,21.12-4.4,21.12c0,0-.63-1.35-2,.65-1.37,2-2.01,8.09,3.17,9.31l6.94-35.17Z"/>
          <path class="cls-18" d="m163.05,467.99c-1.54.86-3.11,1.62-4.53,2.56-.51.37-1.09.71-1.28,1.17,0,.05.11-.06.12-.09,0,0,0,0,0,.01-.03.26-.09.5-.15.86-.88,4.96-1.77,10-3.65,14.72-.45,1.13-.94,2.27-1.57,3.36-.74,1.3-2.75.88-2.91-.6-.42-4.91.46-9.76,1.73-14.48.57-1.98,1.11-3.86,1.98-5.77.05-.12.16-.3.23-.42,1.29-1.99,3.71-2.56,5.82-2.91,1.3-.19,2.55-.25,3.86-.16.51.04.89.48.86.99-.02.34-.23.62-.51.77h0Z"/>
          <path class="cls-4" d="m151.96,649.33s-3.46-25.13-1.66-35.29c1.8-10.17,39.04-240.05,39.04-240.05l-11.55-2.04s-43.77,228.93-45.53,238.9-13.65,32.59-13.65,32.59l33.36,5.89Z"/>
          <rect class="cls-9" x="185.95" y="338.84" width="4.26" height="17.05" rx="1" ry="1" transform="translate(63.27 -27.41) rotate(10.01)"/>
          <rect class="cls-2" x="182.76" y="352.47" width="5.81" height="17.05" rx="1" ry="1" transform="translate(65.6 -26.79) rotate(10.01)"/>
          <rect class="cls-18" x="132.13" y="602.25" width="21.15" height="4.11" rx="1.87" ry="1.87" transform="translate(107.25 -15.61) rotate(10.01)"/>
          <path class="cls-18" d="m156.09,589.32l-8.89-1.57c-.81-.14-1.35-.91-1.2-1.72l9.47-53.61c.14-.81.91-1.35,1.72-1.2l8.89,1.57c.81.14,1.35.91,1.2,1.72s-.91,1.35-1.72,1.2l-7.42-1.31-8.95,50.68,7.42,1.31c.81.14,1.35.91,1.2,1.72s-.91,1.35-1.72,1.2Z"/>
          <path class="cls-18" d="m163.38,548.05l-8.32-1.47c-.81-.14-1.35-.91-1.2-1.72s.91-1.35,1.72-1.2l8.32,1.47c.81.14,1.35.91,1.2,1.72s-.91,1.35-1.72,1.2Z"/>
          <path class="cls-18" d="m161.06,561.18l-8.32-1.47c-.81-.14-1.35-.91-1.2-1.72s.91-1.35,1.72-1.2l8.32,1.47c.81.14,1.35.91,1.2,1.72s-.91,1.35-1.72,1.2Z"/>
          <path class="cls-18" d="m158.74,574.31l-8.32-1.47c-.81-.14-1.35-.91-1.2-1.72.14-.81.91-1.35,1.72-1.2l8.32,1.47c.81.14,1.35.91,1.2,1.72s-.91,1.35-1.72,1.2Z"/>
          <rect class="cls-18" x="153.49" y="489.2" width="18.35" height="4.11" rx="1.87" ry="1.87" transform="translate(87.9 -20.8) rotate(10.01)"/>
          <rect class="cls-18" x="160.06" y="454.55" width="17.44" height="4.11" rx="1.87" ry="1.87" transform="translate(81.97 -22.39) rotate(10.01)"/>
          <rect class="cls-18" x="169.72" y="404.3" width="15.88" height="4.11" rx="1.87" ry="1.87" transform="translate(73.37 -24.7) rotate(10.01)"/>
          <path class="cls-4" d="m174.69,367.95c4.87-4.23,12.5-3.96,16.96.72,1.51,1.61,3.31,4.51,1.29,6.53-2.77,2.42-6.75,3.49-10.26,2.82-2.47-.43-4.86-1.67-6.7-3.55-1.47-1.57-3.4-4.55-1.29-6.52h0Z"/>
          <path class="cls-5" d="m135.83,613.76c1.24,5.88-.84,12.78-3.22,18.18-1.55,3.31-3.42,6.41-5.94,8.77-.47.45-1.15-.08-1-.76.24-1.23,5.07-9.08,8.93-26.06.17-.76,1.06-.85,1.23-.12h0Z"/>
          <g>
            <circle class="cls-18" cx="156.92" cy="523.8" r="3.79"/>
            <path class="cls-13" d="m158.42,521.44c-1.24.5-2.4.77-3.17,1.87-.3.37-.48.8-.78,1.22-.07.13-.27.13-.33,0-.95-1.9.66-3.97,2.67-3.91.29-.07,2.27.41,1.61.82h0Z"/>
          </g>
          <g>
            <circle class="cls-18" cx="145.33" cy="551.77" r="4.21"/>
            <path class="cls-13" d="m147,549.13c-2.48.79-3.23,1.09-4.4,3.46-.05.1-.17.13-.27.07-1.1-2.07.67-4.38,2.89-4.35.65,0,1.28.14,1.83.5.13.08.09.29-.06.32h0Z"/>
          </g>
          <g>
            <circle class="cls-18" cx="138.46" cy="590.63" r="4.21"/>
            <path class="cls-13" d="m140.13,587.99c-2.48.79-3.23,1.09-4.4,3.46-.05.1-.17.13-.27.07-1.1-2.07.67-4.37,2.89-4.35.65,0,1.28.14,1.83.5.13.08.09.29-.06.32h0Z"/>
          </g>
          <g>
            <circle class="cls-18" cx="159" cy="512.05" r="3.79"/>
            <path class="cls-13" d="m160.5,509.69c-1.24.5-2.4.77-3.17,1.87-.3.37-.48.8-.78,1.22-.07.13-.27.13-.33,0-.95-1.9.66-3.97,2.67-3.91.29-.07,2.27.41,1.61.82h0Z"/>
          </g>
          <g>
            <circle class="cls-18" cx="161.07" cy="500.29" r="3.79"/>
            <path class="cls-13" d="m162.57,497.93c-1.24.5-2.4.77-3.17,1.87-.3.37-.48.8-.78,1.22-.07.13-.27.13-.33,0-.95-1.9.66-3.97,2.67-3.91.29-.07,2.27.41,1.61.82h0Z"/>
          </g>
          <g>
            <circle class="cls-18" cx="164.62" cy="480.2" r="3.79"/>
            <path class="cls-13" d="m166.12,477.84c-1.24.5-2.4.77-3.17,1.87-.3.37-.48.8-.78,1.22-.07.13-.27.13-.33,0-.95-1.9.66-3.97,2.67-3.91.29-.07,2.27.41,1.61.82h0Z"/>
          </g>
          <g>
            <circle class="cls-18" cx="167.07" cy="466.34" r="3.79"/>
            <path class="cls-13" d="m168.57,463.97c-1.24.5-2.4.77-3.17,1.87-.3.37-.48.8-.78,1.22-.07.13-.27.13-.33,0-.95-1.9.66-3.97,2.67-3.91.29-.07,2.27.41,1.61.82h0Z"/>
          </g>
          <g>
            <circle class="cls-18" cx="171.21" cy="442.87" r="3.34"/>
            <path class="cls-13" d="m172.58,441.12c-.83.26-1.6.39-2.18.92-.34.28-.53.62-.81.99-.11.19-.24.39-.42.6-.07.08-.19.09-.27.02-1.02-1.66.46-3.8,2.36-3.53.55.08,1.04.29,1.42.69.1.1.04.29-.11.31h0Z"/>
          </g>
          <g>
            <circle class="cls-18" cx="173.17" cy="431.76" r="3.34"/>
            <path class="cls-13" d="m174.54,430.01c-.83.26-1.6.39-2.18.92-.34.28-.53.62-.81.99-.11.19-.24.39-.42.6-.07.08-.19.09-.27.02-1.02-1.66.46-3.8,2.36-3.53.55.08,1.04.29,1.42.69.1.11.04.29-.11.31h0Z"/>
          </g>
          <g>
            <circle class="cls-18" cx="175.13" cy="420.65" r="3.34"/>
            <path class="cls-13" d="m176.5,418.91c-.83.26-1.6.39-2.18.92-.34.28-.53.62-.81.99-.11.19-.24.39-.42.6-.07.08-.19.09-.27.02-1.02-1.66.46-3.8,2.36-3.53.55.08,1.04.29,1.42.69.1.11.04.29-.11.31h0Z"/>
          </g>
          <g>
            <circle class="cls-18" cx="179.56" cy="395.6" r="3.34"/>
            <path class="cls-13" d="m180.93,393.85c-.83.26-1.6.39-2.18.92-.34.28-.53.62-.81.99-.11.19-.24.39-.42.6-.07.08-.19.09-.27.02-1.02-1.66.46-3.8,2.36-3.53.55.08,1.04.29,1.42.69.1.11.04.29-.11.31h0Z"/>
          </g>
          <path class="cls-13" d="m155.96,537.9c-.36-.06-.6-.41-.54-.76l.79-4.48c.06-.36.41-.6.76-.54s.6.41.54.76l-.79,4.48c-.06.36-.41.6-.76.54Z"/>
          <rect class="cls-13" x="170.77" y="404.28" width="9.9" height="1.98" rx=".9" ry=".9" transform="translate(73.15 -24.38) rotate(10.01)"/>
          <rect class="cls-13" x="161.89" y="454.53" width="9.9" height="1.98" rx=".9" ry=".9" transform="translate(81.75 -22.07) rotate(10.01)"/>
          <rect class="cls-13" x="155.78" y="489.18" width="9.9" height="1.98" rx=".9" ry=".9" transform="translate(87.68 -20.48) rotate(10.01)"/>
          <rect class="cls-13" x="135.82" y="602.22" width="9.9" height="1.98" rx=".9" ry=".9" transform="translate(107.03 -15.29) rotate(10.01)"/>
          <path class="cls-18" d="m188.12,410.87c.13-1.08.27-2.19.42-3.32.29-1.73.62-3.68.97-5.7l3.41-19.31c.17-.96-.25-1.55-1.02-2.41-2.79-3.33-7.63-3.26-11.41-1.28-1,.55-1.14,1.82-.55,2.8,2.06,3.45,7.23,3.63,7.61,3.64l-.19,1.09c-.55,2.8-1.07,5.79-1.55,8.8l-2.89,16.35c-.36,1.37-.71,2.74-.96,4.14-.33,1.93-.59,3.87-.73,5.81-.14,1.93-.15,3.88,0,5.84.05.52.37,1,.87,1.25.77.37,1.69.04,2.05-.73.97-2.11,1.7-4.29,2.28-6.5.41-1.55.74-3.11,1.03-4.69.33-1.91.47-3.84.66-5.77Z"/>
          <path class="cls-13" d="m182.42,378.95c1.9-.6,3.9-.58,5.8-.09.56.21,2.58.78,1.95,1.72-.61.52-1.52.56-2.21.65-.65.04-1.29,0-1.92-.09-1.31-.2-2.56-.53-3.73-1.23-.38-.22-.31-.83.1-.96h0Z"/>
          <path class="cls-4" d="m150.35,651.83c-10.39-.21-21.27-2.13-31.1-5.49-.84-.29-1.42-1.04-1.42-1.87h0c0-1.21,1.15-2.12,2.42-1.89l30.45,5.38c1.27.23,2.05,1.47,1.63,2.61h0c-.29.78-1.09,1.29-1.98,1.27Z"/>
          <path class="cls-18" d="m151.83,648.78c-11.2-.27-22.32-2.23-32.93-5.81-.62-.21-.9-.88-.6-1.42,0,0,0-.01,0-.02.24-.44.79-.63,1.29-.46,10.4,3.47,21.28,5.39,32.23,5.69.53.01.98.39,1.05.88,0,0,0,.01,0,.02.09.61-.4,1.14-1.05,1.13Z"/>
        </g>
      </g>
      <g>
        <path class="cls-6" d="m273.37,452.97c-12.87,3.01-59.04,6.04-78.13-2.99-14.79-7-19.87-18.78-19.9-24.22-.05-7.84,6.3-15.68,16.17-19.99.89-.39,1.87-.75,2.93-1.07,6.74-2.1,16.11-2.79,26.03-3.52,12.11-.89,25.17-2.23,37.56-3.68,12.87-1.51,53.48-11.37,65.86,15.47,17.43,37.8-27.9,34.71-50.51,40Z"/>
        <path class="cls-23" d="m275.18,441.52c-12.87,3.01-59.04,6.04-78.13-2.99-11.35-5.37-17.12-12.56-19.14-18.54-2.07,3.06-2.59,2.44-2.57,5.77.03,5.44,5.11,17.22,19.9,24.22,19.09,9.04,65.26,6,78.13,2.99,20.43-4.78,59.39-2.72,53.87-30.17-8.73,12.45-36.21,15.01-52.06,18.71Z"/>
        <path class="cls-14" d="m236.44,459.99c-15.91,0-32.73-1.58-42.92-6.4-16.21-7.67-22.15-20.84-22.19-27.82-.06-9.44,7.23-18.73,18.57-23.67,1.03-.44,2.15-.86,3.34-1.23,7.18-2.23,16.76-2.94,26.91-3.69,10.93-.81,23.51-2.04,37.4-3.67,1.38-.16,3.14-.43,5.18-.74,17.05-2.61,52.53-8.04,64.77,18.52,5.02,10.89,5.62,19.53,1.85,26.42-6.61,12.07-24.78,14.58-40.81,16.79-5.24.72-10.19,1.41-14.27,2.36h0c-6.41,1.5-21.66,3.13-37.84,3.13Zm50.61-61.55c-8.47,0-16.83,1.28-23.11,2.24-2.12.32-3.94.6-5.46.78-14,1.64-26.69,2.88-37.73,3.7-9.69.71-18.83,1.39-25.13,3.35-.92.29-1.77.6-2.52.92-8.26,3.6-13.79,10.15-13.76,16.29.02,4.02,4.36,14.35,17.61,20.63,17.32,8.2,62.04,5.86,75.51,2.71h0c4.44-1.04,9.57-1.75,15-2.5,14.16-1.95,30.21-4.17,34.89-12.7,2.44-4.45,1.73-10.92-2.1-19.23-5.97-12.95-19.71-16.2-33.18-16.2Z"/>
        <path class="cls-16" d="m338.31,367.71s-18.41,9.51-42.19,16.62c-18.19,5.44-38.05,6.63-38.05,6.63l6.64,62.82s64.94,3.98,106.37-22.88c8.34-5.41,17.18-13.34,15.05-27.11-4.03-26.07-47.82-36.07-47.82-36.07Z"/>
        <path class="cls-14" d="m226.22,462.53c-2.1,0-3.84-1.62-3.99-3.72l-4.29-61.84c-.15-2.17,1.46-4.06,3.62-4.26.71-.07,71.8-6.93,108.37-27.55,1.93-1.08,4.36-.4,5.45,1.52,1.08,1.92.4,4.36-1.52,5.45-33.45,18.86-91.95,26.4-107.67,28.14l3.76,54.16c13.55-.42,60.71-2.42,97.83-10.43,2.16-.47,4.29.91,4.75,3.07.47,2.16-.91,4.29-3.07,4.75-44.38,9.57-102.59,10.7-103.17,10.71-.02,0-.05,0-.07,0Z"/>
        <g>
          <rect class="cls-16" x="211.57" y="390.62" width="61.48" height="74.2" transform="translate(-46.93 30.23) rotate(-6.51)"/>
          <rect class="cls-3" x="231.55" y="390.62" width="21.52" height="74.2" transform="translate(-46.93 30.23) rotate(-6.51)"/>
          <path class="cls-14" d="m215.97,472.06c-.9,0-1.78-.3-2.49-.87-.83-.66-1.36-1.62-1.49-2.68l-8.41-73.72c-.25-2.19,1.33-4.18,3.52-4.43l61.09-6.97c2.19-.25,4.18,1.33,4.43,3.52l8.41,73.72c.12,1.05-.18,2.11-.84,2.94-.66.83-1.62,1.36-2.68,1.49l-61.09,6.97c-.15.02-.3.03-.45.03Zm-3.98-74.2l7.5,65.78,53.14-6.06-7.51-65.78-53.14,6.06Z"/>
        </g>
      </g>
      <g>
        <g>
          <path class="cls-15" d="m410.38,359.71c-1-2.34-3.08-3.89-5.4-4.34,1.28-1.99,1.58-4.56.58-6.9-1.61-3.74-5.94-5.47-9.68-3.87,0,0-3.76.76-5.48,5.94l-19.98,3.32-3.18,1.36-16.17,12.2c-4.94-2.32-8.08-.12-8.08-.12-3.74,1.61-5.47,5.94-3.87,9.68,1,2.34,3.08,3.89,5.4,4.34-1.28,1.99-1.58,4.56-.58,6.9,1,2.34,3.08,3.89,5.4,4.34-1.28,1.99-1.58,4.56-.58,6.9,1,2.34,3.08,3.89,5.4,4.34-1.28,1.99-1.58,4.56-.58,6.9,1.57,3.66,5.75,5.39,9.44,3.96.1.47.24.93.44,1.38,1.61,3.74,5.94,5.47,9.68,3.87,1.2-.52,2.19-1.32,2.94-2.28.03.07.05.14.08.21,1.61,3.74,5.94,5.47,9.68,3.87,1.43-.61,2.55-1.63,3.32-2.85,1.66,1.38,3.88,1.97,6.05,1.56h0s0,0,0,0c.25-.05.5-.1.74-.17.27-.08.55-.17.81-.28h0s.07-.04.1-.05c.04-.01.07-.02.11-.04h0c.27-.12.52-.25.77-.4.22-.13.43-.27.64-.42,0,0,0,0,0,0h0c1.79-1.3,2.89-3.31,3.04-5.46,1.41.28,2.92.17,4.35-.44,3.74-1.61,5.47-5.94,3.87-9.68-.03-.07-.07-.13-.1-.2,1.21.13,2.48-.04,3.68-.55,3.74-1.61,5.47-5.94,3.87-9.68-.19-.45-.43-.88-.7-1.27,3.57-1.69,5.2-5.91,3.63-9.57-1-2.34-3.08-3.89-5.4-4.34,1.28-1.99,1.58-4.56.58-6.9-1-2.34-3.08-3.89-5.4-4.34,1.28-1.99,1.58-4.56.58-6.9Z"/>
          <path class="cls-10" d="m382.95,423.31c-2.84,0-5.57-1.45-7.12-3.94-.68.61-1.45,1.11-2.29,1.47-2.06.88-4.33.91-6.41.08-2.08-.83-3.71-2.42-4.59-4.47-.07-.17-.14-.34-.2-.51-3.93.97-8.03-1.01-9.67-4.83-.92-2.15-.9-4.56.03-6.67-2.16-.78-3.93-2.42-4.85-4.57-.92-2.15-.9-4.56.03-6.67-2.16-.78-3.93-2.42-4.85-4.57-.92-2.15-.9-4.56.03-6.67-2.16-.78-3.93-2.42-4.85-4.57-.88-2.06-.91-4.33-.08-6.41.82-2.05,2.38-3.66,4.39-4.55.6-.38,3.75-2.1,8.42-.15l15.7-11.85c.06-.05.13-.09.21-.12l3.18-1.36c.07-.03.15-.05.23-.07l19.4-3.22c1.8-4.73,5.22-5.83,5.91-6,4.22-1.76,9.11.21,10.92,4.43.92,2.15.9,4.56-.03,6.67,2.17.78,3.93,2.42,4.85,4.57h0c.92,2.15.9,4.56-.03,6.67,2.17.78,3.93,2.42,4.85,4.57.92,2.15.9,4.56-.03,6.67,2.16.78,3.93,2.42,4.85,4.57,1.64,3.82.25,8.16-3.17,10.34.08.17.16.33.24.5.88,2.05.91,4.33.08,6.41-.83,2.08-2.42,3.71-4.47,4.59-.84.36-1.73.58-2.64.65,1.02,3.93-.96,8.14-4.8,9.79-1.23.53-2.55.75-3.89.65-.41,2.06-1.58,3.9-3.31,5.15-.24.17-.47.33-.73.48-.27.16-.56.31-.87.45-.03.01-.12.04-.15.05.04,0,0,.01-.06.04-.31.13-.62.24-.94.33-.27.08-.55.14-.83.19-.01,0-.03,0-.04,0-2.09.38-4.21-.04-5.98-1.15-.84,1.03-1.92,1.84-3.15,2.37-1.07.46-2.19.68-3.29.68Zm-6.87-6.68s.09,0,.14,0c.36.05.66.28.79.62,0,.01.04.12.05.13,1.41,3.28,5.16,4.79,8.39,3.4,1.18-.51,2.17-1.36,2.87-2.46.15-.24.4-.41.69-.46.29-.05.57.03.8.22,1.46,1.21,3.37,1.7,5.23,1.35.01,0,.02,0,.03,0,.21-.04.41-.08.61-.14.25-.07.48-.15.7-.24,0,0,.05-.03.1-.05.03-.01.11-.04.14-.05.19-.08.41-.2.62-.32.21-.12.38-.24.56-.37,1.54-1.12,2.5-2.84,2.63-4.72.02-.29.16-.55.39-.73.23-.17.52-.24.8-.19,1.28.26,2.58.13,3.76-.38,1.56-.67,2.77-1.91,3.41-3.49.63-1.58.61-3.31-.06-4.88l-.09-.18c-.15-.33-.12-.71.09-1,.21-.29.57-.45.92-.41,1.08.11,2.18-.05,3.18-.48,3.23-1.39,4.73-5.14,3.34-8.37-.16-.38-.37-.75-.61-1.1-.17-.24-.22-.54-.14-.83.08-.28.27-.52.54-.64,3.12-1.47,4.5-5.1,3.14-8.27-.84-1.95-2.58-3.35-4.67-3.75-.33-.06-.6-.28-.73-.59s-.1-.66.08-.94c1.15-1.79,1.33-4.02.5-5.97-.84-1.95-2.58-3.35-4.67-3.75-.33-.06-.6-.28-.73-.59s-.1-.66.08-.94c1.15-1.79,1.34-4.02.5-5.97-.84-1.95-2.58-3.35-4.67-3.75-.33-.06-.6-.28-.73-.59s-.1-.66.08-.94c1.15-1.79,1.34-4.02.5-5.97-1.38-3.23-5.14-4.73-8.37-3.34-.06.03-.13.05-.2.06-.12.03-3.22.76-4.72,5.27-.12.35-.42.61-.79.67l-19.86,3.3-2.96,1.27-16.07,12.13c-.3.23-.69.27-1.03.11-4.31-2.03-6.97-.28-7.08-.2-.05.04-.12.07-.17.1-1.56.67-2.77,1.91-3.41,3.49-.63,1.58-.61,3.31.06,4.88.84,1.95,2.58,3.35,4.67,3.75.33.06.6.28.73.59s.1.66-.08.94c-1.15,1.79-1.34,4.02-.5,5.97.84,1.95,2.58,3.35,4.67,3.75.33.06.6.28.73.59s.1.66-.08.94c-1.15,1.79-1.34,4.02-.5,5.97s2.58,3.35,4.67,3.75c.33.06.6.28.73.59.13.3.1.66-.08.93-1.15,1.79-1.34,4.02-.5,5.97,1.36,3.17,4.94,4.67,8.16,3.42.27-.11.58-.09.84.05.26.14.44.38.5.67.09.42.22.82.38,1.2.67,1.56,1.91,2.77,3.49,3.41,1.58.63,3.31.61,4.88-.06,1-.43,1.87-1.11,2.54-1.97.19-.25.48-.39.79-.39Z"/>
        </g>
        <path class="cls-6" d="m413.72,354.29c-1-2.34-3.07-3.9-5.39-4.35,1.29-1.99,1.59-4.56.59-6.9-1.6-3.75-5.93-5.49-9.68-3.89,0,0-3.76.75-5.49,5.93l-19.99,3.27-3.18,1.36-16.2,12.16c-4.94-2.33-8.08-.14-8.08-.14-3.75,1.6-5.49,5.93-3.89,9.68,1,2.34,3.07,3.9,5.39,4.35-1.29,1.99-1.59,4.56-.59,6.9s3.07,3.9,5.39,4.35c-1.29,1.99-1.59,4.56-.59,6.9,1,2.34,3.07,3.9,5.39,4.35-1.28,1.99-1.59,4.56-.59,6.9,1.56,3.66,5.74,5.4,9.43,3.98.1.47.24.93.43,1.38,1.6,3.75,5.93,5.49,9.68,3.89,1.2-.51,2.2-1.31,2.94-2.28.03.07.05.14.08.21,1.6,3.75,5.93,5.49,9.68,3.89,1.43-.61,2.55-1.62,3.32-2.84,1.66,1.38,3.87,1.98,6.05,1.58h0s0,0,0,0c.25-.05.5-.1.74-.17.27-.08.55-.17.82-.28h0s.07-.04.1-.05c.04-.01.07-.02.11-.04h0c.27-.11.52-.25.77-.39.22-.13.43-.27.64-.42,0,0,0,0,0,0h0c1.79-1.29,2.9-3.3,3.05-5.46,1.41.29,2.92.18,4.35-.43,3.75-1.6,5.49-5.93,3.89-9.68-.03-.07-.07-.13-.1-.2,1.21.13,2.48-.03,3.68-.55,3.75-1.6,5.49-5.93,3.89-9.68-.19-.45-.43-.88-.7-1.27,3.58-1.68,5.22-5.9,3.65-9.56-1-2.34-3.07-3.9-5.39-4.35,1.28-1.99,1.59-4.56.59-6.9s-3.07-3.9-5.39-4.35c1.29-1.99,1.59-4.56.59-6.9Z"/>
        <g class="cls-24">
          <path class="cls-21" d="m344.64,376.53c-.96,0-1.58-.16-1.71-.2-.8-.23-1.26-1.06-1.03-1.85.23-.8,1.06-1.26,1.85-1.03.06.02,2.03.49,4.75-1.02,2.88-1.6,4.43-4.82,4.45-4.85.36-.75,1.25-1.07,2-.71.75.35,1.07,1.24.72,1.99-.08.17-1.96,4.11-5.71,6.2-2.16,1.21-4.04,1.49-5.31,1.49Z"/>
          <path class="cls-21" d="m349.84,387.91c-.84,0-1.38-.12-1.51-.16-.8-.21-1.28-1.03-1.08-1.83.21-.8,1.03-1.28,1.83-1.08.06.01,2.04.44,4.72-1.14,2.86-1.68,4.17-4.74,4.18-4.77.32-.76,1.2-1.12,1.96-.8.76.32,1.12,1.2.8,1.96-.07.16-1.72,4.01-5.42,6.2-2.26,1.33-4.21,1.62-5.49,1.62Z"/>
          <path class="cls-21" d="m354.39,398.68c-.71,0-1.16-.09-1.28-.12-.81-.18-1.32-.98-1.13-1.79.18-.81.98-1.32,1.79-1.13.06.01,2.05.38,4.74-1.23,3.22-1.91,4.38-4.51,4.39-4.54.33-.75,1.21-1.11,1.97-.78.76.32,1.11,1.2.79,1.96-.06.14-1.51,3.5-5.62,5.94-2.37,1.41-4.41,1.69-5.65,1.69Z"/>
          <path class="cls-21" d="m401.96,351.84c-1.88,0-3.03-.47-3.22-.55-.76-.33-1.1-1.22-.77-1.98.33-.75,1.21-1.1,1.96-.78.11.04,1.97.76,4.97-.17,3.14-.96,4.87-3.18,4.89-3.2.5-.65,1.44-.78,2.1-.28.66.5.79,1.44.29,2.09-.09.12-2.3,2.99-6.4,4.25-1.48.45-2.77.6-3.83.6Z"/>
          <path class="cls-21" d="m406.54,362.83c-2.04,0-3.29-.54-3.48-.63-.75-.35-1.07-1.24-.72-2,.35-.74,1.23-1.07,1.98-.73.11.05,1.95.81,4.97-.05,3.36-.94,5.81-2.79,5.83-2.81.66-.5,1.6-.38,2.1.28.5.66.38,1.6-.27,2.1-.12.09-2.91,2.21-6.85,3.32-1.36.38-2.56.51-3.56.51Z"/>
          <path class="cls-21" d="m411.74,373.43c-2.62,0-4.01-.61-4.2-.69-.75-.35-1.07-1.24-.72-1.99.35-.74,1.23-1.07,1.98-.73.07.03,1.7.68,4.9.29,3.44-.41,6.52-2.24,6.55-2.26.71-.43,1.63-.2,2.06.51.43.71.2,1.63-.51,2.06-.15.09-3.64,2.17-7.74,2.67-.86.1-1.63.14-2.31.14Z"/>
          <path class="cls-21" d="m360.72,411.17c-.82,0-1.49-.66-1.5-1.48,0-.83.65-1.51,1.48-1.52.07,0,2.22-.1,4.42-2.25,2.3-2.24,2.89-5.35,2.89-5.38.14-.82.92-1.36,1.73-1.22.82.14,1.37.92,1.22,1.73-.03.17-.73,4.08-3.75,7.03-3.1,3.02-6.34,3.1-6.48,3.1h-.02Z"/>
          <path class="cls-21" d="m373.86,416.94c-.54,0-1.07-.3-1.33-.81-.38-.74-.09-1.64.64-2.02.03-.02,3.26-1.73,4.29-4.32,1-2.5.38-4.18.36-4.25-.29-.77.08-1.63.85-1.94.76-.3,1.62.06,1.93.81.12.28,1.1,2.86-.35,6.49-1.45,3.64-5.53,5.78-5.7,5.87-.22.11-.46.17-.69.17Z"/>
          <path class="cls-21" d="m414.36,405.84c-.77,0-1.42-.58-1.49-1.36,0-.02-.34-2.94-2.91-5.38-1.98-1.88-3.38-2.1-3.39-2.1-.8-.11-1.39-.85-1.3-1.65.09-.81.79-1.4,1.6-1.33.24.02,2.39.27,5.17,2.91,3.42,3.25,3.81,7.12,3.83,7.28.08.83-.53,1.56-1.35,1.63-.05,0-.09,0-.14,0Z"/>
          <path class="cls-21" d="m421.48,390.96c-.62,0-1.19-.38-1.41-.99-.02-.06-.78-1.92-3.57-3.22-2.85-1.33-4.78-.85-4.86-.83-.79.21-1.62-.26-1.83-1.05-.22-.79.23-1.61,1.02-1.83.3-.09,3.08-.8,6.94,1,3.92,1.83,5.01,4.62,5.12,4.93.28.78-.13,1.64-.91,1.92-.17.06-.34.09-.51.09Z"/>
          <path class="cls-21" d="m417.63,386.37c-1.8,0-3.23-.35-3.32-.37-.8-.2-1.29-1.02-1.09-1.82.2-.8,1.02-1.29,1.82-1.09h0s3.15.76,5.38-.19c2.5-1.07,3.6-3.06,3.61-3.08.39-.73,1.3-1.01,2.03-.62.73.39,1.01,1.28.63,2.01-.06.12-1.56,2.94-5.09,4.44-1.3.55-2.72.72-3.96.72Z"/>
          <path class="cls-21" d="m389.05,418.88c-.32,0-.65-.1-.92-.32-.65-.51-.77-1.45-.26-2.11.02-.02,2.11-2.76,2.21-5.62.09-2.71-1.01-4.08-1.06-4.14-.52-.63-.44-1.58.18-2.11.62-.53,1.55-.47,2.09.15.2.22,1.91,2.31,1.78,6.19-.13,3.85-2.74,7.22-2.85,7.37-.3.38-.74.58-1.18.58Z"/>
          <path class="cls-21" d="m404.21,414.44c-.82,0-1.49-.66-1.5-1.48,0-.03-.07-3.15-1.65-5.59-1.61-2.47-3.31-3.49-3.33-3.5-.71-.42-.96-1.33-.54-2.05.41-.71,1.32-.96,2.04-.55.09.05,2.31,1.34,4.35,4.47,2.07,3.19,2.14,7.03,2.14,7.19,0,.83-.66,1.51-1.48,1.52h-.02Z"/>
        </g>
        <g>
          <path class="cls-16" d="m391.88,403.42c-9.43,4.02-20.38-.38-24.4-9.81l-13.11-30.73s4-6.06,18.6-12.28c14.59-6.22,21.73-4.92,21.73-4.92l13.11,30.73c4.02,9.43-.38,20.38-9.81,24.4l-6.12,2.61Z"/>
          <path class="cls-21" d="m384.61,407.92c-2.73,0-5.46-.52-8.07-1.57-5.36-2.15-9.55-6.26-11.81-11.56l-13.11-30.73c-.4-.93-.3-1.99.26-2.83.46-.7,4.93-6.99,19.92-13.38,14.99-6.39,22.63-5.26,23.45-5.11.99.18,1.83.85,2.22,1.77l13.11,30.73c2.26,5.3,2.32,11.17.17,16.52-2.15,5.36-6.26,9.55-11.56,11.81l-6.12,2.61c-2.72,1.16-5.58,1.74-8.45,1.74Zm-26.74-44.5l12.38,29.02c1.63,3.82,4.66,6.79,8.53,8.34,3.87,1.56,8.11,1.51,11.93-.12h0l6.12-2.61c3.82-1.63,6.79-4.66,8.34-8.53s1.51-8.11-.12-11.93l-12.38-29.02c-2.65.03-8.82.65-18.53,4.79-9.69,4.13-14.41,8.15-16.28,10.06Z"/>
        </g>
      </g>
      <g>
        <g>
          <path class="cls-10" d="m108.76,416.43c23.16,3.23,31.82,8.59,31.82,8.59,0,0,12.28,37.35-31.75,61.94,0,0-11.92-8.24-25.57-18.89,0,0,7.01-54.23,25.5-51.64Z"/>
          <path class="cls-14" d="m108.83,490.96c-.8,0-1.59-.24-2.28-.71-.12-.08-12.17-8.43-25.75-19.02-1.12-.87-1.69-2.26-1.51-3.67.54-4.22,5.73-41.52,19.67-52.16,3.22-2.46,6.7-3.44,10.35-2.93h0c23.72,3.31,32.99,8.91,33.37,9.15.8.5,1.4,1.26,1.7,2.15.14.42,3.37,10.48.76,23.77-2.38,12.15-10.28,29.47-34.36,42.92-.61.34-1.28.51-1.95.51Zm-21.29-24.63c9.38,7.25,17.76,13.25,21.5,15.89,33.78-20.08,29.75-47.67,28.14-54.46-3.1-1.45-11.99-5-28.98-7.37h0c-1.5-.21-2.89.23-4.39,1.37-8.97,6.85-14.48,32.65-16.27,44.57Z"/>
        </g>
        <g>
          <path class="cls-6" d="m131.02,429.01c30.34,5.03,37.28,30.44,29.97,42.4-3.92,6.41-11.68,11.04-21.67,10.68-.9-.03-1.87-.13-2.88-.28-6.48-.98-23.67-3.6-29.43-7.4-7.86-5.18-.49-17.91,3.66-25.61,8.73-16.21,15.33-20.62,20.35-19.79Z"/>
          <path class="cls-23" d="m158.62,452.1c.23,1.68-1.06,15.58-21.37,17.67-14.28,1.47-24.11-5.05-29.88-8.85-1.62-1.07-2.81-1.01-3.42-2.61-2.02,6.17-2.56,12.67,2.51,16.01,5.77,3.8,22.96,6.42,29.43,7.4,1.01.15,1.98.25,2.88.28,9.98.36,17.75-4.27,21.67-10.68,2.42-3.96,1.93-17.94.89-23.62-.4,1.12-2.87,3.27-2.72,4.39Z"/>
          <path class="cls-14" d="m140.4,486.11c-.41,0-.82,0-1.23-.02-1.05-.04-2.17-.15-3.33-.32-11.4-1.72-25.23-4.19-31.03-8.01-9.89-6.52-3.21-18.95.79-26.38.57-1.05,1.11-2.06,1.58-2.99,8.35-16.53,16.82-24.58,24.5-23.32,21.29,3.53,29.84,15.79,33.03,22.78,4.06,8.88,3.94,18.71-.31,25.66-4.86,7.95-13.77,12.61-23.99,12.61Zm-10.26-53.17c-1.93,0-7.87,3.29-15.82,19.05-.5.99-1.07,2.06-1.67,3.17-3.95,7.34-6.93,13.6-3.43,15.91,3.37,2.22,12.74,4.51,27.83,6.79.87.13,1.68.21,2.43.24,7.83.27,14.58-3,18.11-8.77,2.84-4.64,2.78-11.76-.14-18.16-2.54-5.55-9.42-15.29-27.07-18.21h0c-.07-.01-.14-.02-.22-.02Z"/>
        </g>
        <g>
          <path class="cls-16" d="m71.35,460.91c14.4,9.61,23.07,16.44,37.47,26.05,2.06-23.97,15.38-46.15,31.75-61.94-16.21-6.08-26.69-9.39-42.9-15.47-11.72,9.65-23.79,29.96-26.33,51.36Z"/>
          <path class="cls-10" d="m74.67,445.9c-1.56,4.85-2.71,9.9-3.32,15.01,14.4,9.61,23.07,16.44,37.47,26.05.47-5.43,3.94-14.82,5.46-20.02-6.05-1.76-33.38-13.54-39.62-21.04Z"/>
          <path class="cls-3" d="m83.16,469.51c2.49,1.66,4.8,3.23,7,4.76.01-.08.03-.16.05-.25-2.3-1.64-4.6-3.28-6.99-4.96-.02.15-.04.3-.06.45Z"/>
          <path class="cls-10" d="m74.67,445.9c-1.56,4.85-2.71,9.9-3.32,15.01,4.38,2.92,8.23,5.59,11.87,8.15.62-5,1.76-9.93,3.3-14.68-5.26-2.95-9.75-5.96-11.85-8.48Z"/>
          <path class="cls-10" d="m94.42,474.54c-1.23-.85-2.5-1.72-3.81-2.61-.14.7-.28,1.4-.39,2.09,5.73,4.08,11.46,8.17,18.61,12.94.47-5.43,3.94-14.82,5.46-20.02-2.58-.75-9.01-3.31-16.03-6.59-1.74,4.81-3.08,9.61-3.85,14.19Z"/>
          <path class="cls-3" d="m121.7,421.36c-2.53-.92-5.16-1.88-7.97-2.94-.36.29-.71.6-1.07.91-1.04-.38-2.09-.77-3.18-1.18-11.72,9.65-23.79,29.96-26.33,51.36,2.49,1.66,4.8,3.23,7,4.76.13-.77.28-1.55.44-2.33,1.31.89,2.58,1.76,3.81,2.61,3.22-19.21,16.45-42.35,27.29-53.18Z"/>
          <path class="cls-12" d="m94.42,474.54c.77-4.58,2.11-9.38,3.85-14.19-3.92-1.83-8.02-3.88-11.74-5.97-1.53,4.75-2.67,9.68-3.3,14.68,2.39,1.68,4.69,3.32,6.99,4.96.12-.69.25-1.39.39-2.09,1.31.89,2.58,1.76,3.81,2.61Z"/>
          <path class="cls-14" d="m108.83,490.96c-.78,0-1.55-.23-2.22-.67-7.25-4.84-13.14-9.04-18.84-13.1-5.65-4.03-11.49-8.19-18.63-12.96-1.05-.7-1.71-1.87-1.77-3.13-.8-16.5,12.47-42.57,27.84-54.69,1.1-.87,2.57-1.09,3.88-.6,8.07,3.03,14.84,5.41,21.38,7.71,6.58,2.31,13.38,4.7,21.51,7.76,1.27.48,2.22,1.57,2.5,2.9.29,1.33-.12,2.71-1.08,3.68-20.38,20.34-29.82,38.62-30.58,59.26-.05,1.45-.89,2.75-2.18,3.41-.57.29-1.2.44-1.82.44Zm-33.49-32.2c6.46,4.35,11.85,8.19,17.07,11.91,4.09,2.92,8.28,5.9,13,9.14,2.37-18.29,11.42-35.45,28.03-53.18-5.64-2.07-10.7-3.84-15.62-5.58-5.99-2.11-12.16-4.28-19.36-6.95-11.93,10.49-22.68,31.26-23.12,44.65Z"/>
        </g>
      </g>
      <g>
        <path class="cls-16" d="m186.55,92.9c-34.72,5.95-79.03,19.36-77.84,26.33,8.57,50,31.35,88.19,39.92,138.19,43.13,6.27,82.41-7.05,127.08-24.77-8.57-50,1.57-90.85-7-140.85-1.19-6.97-47.45-4.86-82.16,1.1Z"/>
        <path class="cls-15" d="m268.71,91.81c-.77-4.51-20.46-5.22-43.66-3.53,4.75.7,7.68,1.85,7.97,3.53,8.57,50,6.92,90.2,15.5,140.2-30.57,12.12-67.12,25.8-95.61,28.94,41.46,4.82,79.62-8.2,122.8-25.32-8.57-50,1.57-93.81-7-143.81Z"/>
        <path class="cls-8" d="m186.55,95.75c-34.72,5.95-79.03,19.36-77.84,26.33,8.57,50,31.35,79.92,39.92,129.92,43.13,6.27,87.14-1.27,125.72-21.55-8.57-50,2.94-85.8-5.63-135.8-1.19-6.97-47.45-4.86-82.16,1.1Z"/>
        <path class="cls-8" d="m186.55,95.75c-34.72,5.95-79.03,19.36-77.84,26.33,8.57,50,31.35,79.92,39.92,129.92,43.13,6.27,87.14-1.27,125.72-21.55-8.57-50,2.94-85.8-5.63-135.8-1.19-6.97-47.45-4.86-82.16,1.1Z"/>
        <path class="cls-3" d="m140.49,111.3c-9.14,2.85-15.39,5.29-19.49,7.21l49.42,105.68,26.24-4.5,11.91-122.8c-6.7.79-13.34,1.74-19.53,2.8-15.71,2.69-33.87,7.03-48.56,11.61Z"/>
        <g>
          <path class="cls-8" d="m268.22,165.02c.38-21.88.77-44.51-3.3-68.8-2.13-1.02-10-2.43-28.04-1.75-15.38.58-33.94,2.53-49.66,5.23-15.71,2.69-33.87,7.03-48.56,11.61-17.24,5.37-24.19,9.32-25.85,10.99,4.26,24.31,12.07,46.29,19.63,67.55,3.67,10.33,7.4,20.84,10.77,31.72,41.45-3.16,83.43-11.7,124.91-25.62-.25-10.54-.08-20.82.09-30.93Z"/>
          <path class="cls-8" d="m150.59,282.77c4.33,6.01,15.17,6.38,23.49,5.64,33.8-3.03,59.18-17.16,71.3-25.3,10.41-7,17.37-13.62,21.51-18.58-38.73,11.45-77.9,18.21-116.65,20.27-1.78,5.45-3.2,13.06.34,17.98Z"/>
          <path class="cls-20" d="m271.71,235.68c-.03-.12-.06-.24-.08-.36-2.29-13.66-3.2-26.71-3.51-39.37-41.48,13.92-83.46,22.46-124.91,25.62,3.59,11.6,6.78,23.62,9.06,36.33.14.78.04,1.58-.27,2.3-.51,1.16-1.15,2.75-1.75,4.59,38.75-2.07,77.92-8.83,116.65-20.27,3.31-3.97,4.82-6.88,4.82-8.05v-.78Z"/>
        </g>
        <path class="cls-11" d="m148.63,252.01v8.27c34.65,3.38,91.12-10.39,127.08-24.65-2.35-13.72-3.29-27.98-3.6-41.02-9.16,3.15-18.34,6.04-27.54,8.66,1.03,8.98,2.3,18.18,3.94,27.74-30.99,16.71-99.88,21-99.88,21Z"/>
        <path class="cls-8" d="m186.55,95.75c-34.72,5.95-79.03,19.36-77.84,26.33,8.57,50,31.35,88.19,39.92,138.19,43.13,6.27,82.41-7.05,127.08-24.77-8.57-50,1.57-90.85-7-140.85-1.19-6.97-47.45-4.86-82.16,1.1Z"/>
        <path class="cls-14" d="m275.71,234.62c-94.68,27.36-127.34,23.87-127.34,23.87-6.07,13.87-10.05,37.14,26.06,33.9,60.11-5.4,101.27-45.21,101.27-55.92,0-.96,0-1.87,0-1.84Z"/>
        <path class="cls-14" d="m168.08,296.69c-11.5,0-19.55-3.1-23.98-9.24-6.55-9.08-3.01-21.83.08-29.31-4.33-23.52-11.93-44.92-19.28-65.61-7.76-21.84-15.78-44.42-20.13-69.76-.82-4.79,4.32-8.1,8.89-10.45,4.59-2.36,11.07-4.91,19.27-7.58,15.65-5.09,35.44-9.92,52.95-12.92,17.51-3,37.78-5.04,54.23-5.45,8.62-.22,15.58.03,20.69.73,5.09.7,11.04,2.11,11.86,6.89,4.35,25.37,3.95,48.66,3.56,71.17-.37,21.58-.76,43.89,3.13,67.8.14.31.24.63.3.98.05.27.07.53.06.79v.69s0,.06,0,.09v.95c0,14.64-45.41,54.57-104.92,59.91-2.36.21-4.6.32-6.72.32Zm-55.27-174.4c4.26,24.31,12.07,46.29,19.63,67.55,7.58,21.34,15.43,43.42,19.83,68.05.14.78.04,1.58-.27,2.3-2,4.59-6.15,15.99-1.4,22.57,4.33,6.01,15.17,6.38,23.49,5.64,33.8-3.03,59.18-17.16,71.3-25.3,18.75-12.6,26.33-24.01,26.33-26.64v-.78c-.03-.12-.06-.24-.08-.36-4.19-25.03-3.8-48.04-3.41-70.3.38-21.88.77-44.51-3.3-68.8-2.13-1.02-10-2.43-28.04-1.75-15.38.58-33.94,2.53-49.66,5.23-15.71,2.69-33.87,7.03-48.56,11.61-17.24,5.37-24.19,9.32-25.85,10.99Zm166.9,113.21h0,0Z"/>
        <path class="cls-22" d="m232.9,59.29c28.95,9.43,19.34,51.71-11.07,51.68,27.54,23.9-16.85,52.22-41.53,38.11-.99,4.33.57,48.19,8.22,67.66,0,0-.91,1.5-1.9,1.73-.87.2-3.17-.39-3.17-.39-10.38-15.8-41.14-76.08-28.91-139.67,23.27-120.94,146.44-69.67,78.36-19.12Z"/>
        <path class="cls-13" d="m226.37,55.29c28.95,9.43,19.34,51.71-11.07,51.68,27.54,23.9-16.85,52.22-41.53,38.11-.99,4.33.57,48.19,8.22,67.66,0,0-.91,1.5-1.9,1.73-.87.2-3.17-.39-3.17-.39-10.38-15.8-41.14-76.08-28.91-139.67,23.27-120.94,146.44-69.67,78.36-19.12Z"/>
        <g>
          <path class="cls-21" d="m204.49,220.96c2.35,13.72-6.61,25.76-18.96,26.81-11.32.96-21.46-7.82-23.47-19.54-2.01-11.72,4.63-23.37,15.62-26.24,12-3.13,24.46,5.24,26.81,18.96Z"/>
          <path class="cls-13" d="m178.2,205.04c2.46-.61,4.98-.68,7.49-.19,1.22.24,2.44.61,3.6,1.11,1.17.5,2.3,1.12,3.36,1.86,1.07.74,2.08,1.6,3,2.56.93.97,1.78,2.04,2.51,3.19,1.53,2.4,2.57,5.09,3.06,7.96.49,2.88.41,5.75-.23,8.53-.31,1.33-.75,2.62-1.3,3.84-.55,1.21-1.21,2.35-1.98,3.41-.76,1.05-1.62,2.02-2.55,2.87-.94.86-1.96,1.61-3.03,2.24-2.2,1.3-4.61,2.07-7.13,2.31-2.48.24-4.93-.05-7.28-.84-1.12-.38-2.21-.87-3.25-1.46-1.02-.58-2-1.27-2.91-2.04-.9-.77-1.75-1.62-2.51-2.54-.77-.93-1.46-1.93-2.06-2.98-1.24-2.17-2.08-4.54-2.51-7.05-.43-2.51-.42-5.02.02-7.48.21-1.19.53-2.36.95-3.49.41-1.12.92-2.21,1.52-3.23.6-1.03,1.3-2,2.06-2.89.78-.9,1.65-1.73,2.58-2.46,1.96-1.53,4.17-2.62,6.58-3.22m-.22-1.27c-10.19,2.58-16.38,13.35-14.52,24.22,1.86,10.87,11.29,18.96,21.76,18,11.34-1.04,19.51-12.14,17.36-24.71-2.16-12.57-13.55-20.32-24.59-17.52h0Z"/>
          <path class="cls-13" d="m166.32,227.51c1.13,6.57,5.49,11.83,11.04,13.99l-10.95-20.99c-.45,2.23-.5,4.6-.09,7Zm26.54-5.5c-.39-2.27-1.44-3.69-2.31-4.78-1.13-1.33-2.17-2.43-2.43-3.93-.29-1.67.64-3.48,2.35-3.86.08-.02.15-.02.23-.04-3.58-2.28-7.87-3.13-12.11-2.11-5.48,1.32-9.6,5.46-11.45,10.61.35-.06.67-.12.95-.18,1.55-.32,3.94-1.05,3.94-1.05.81-.23,1.14,1.11.34,1.39,0,0-.8.28-1.7.51l8.8,17.64,1.54-11.98-3.76-6.99c-.86.12-1.67.17-1.67.17-.85.12-.99-1.32-.15-1.45,0,0,2.63-.32,4.2-.65,1.69-.35,4.31-1.14,4.31-1.14.89-.24,1.24,1.15.36,1.45,0,0-.88.3-1.86.55l9.4,18.27.78-6.2c.36-2.74.51-4.67.24-6.24Zm-10.7,4.37l-2.21,15.87c1.51.31,3.07.4,4.67.23,1.92-.2,3.73-.76,5.38-1.6-.06-.07-.11-.15-.16-.23l-7.68-14.27Zm12.95-12.98c.18.58.33,1.2.45,1.89.32,1.89.34,4.07-.23,6.89l-2.62,16.95c4.72-3.8,7.34-10.29,6.16-17.2-.56-3.26-1.89-6.16-3.76-8.53Z"/>
        </g>
        <path class="cls-17" d="m163.15,261.97c-5.44.32-8.88.27-10.61.2-.84-.04-1.6.45-1.92,1.23-5.77,13.59-9.02,29.15,38.36,24.28,1.36-.14-34.27-7.15-24.9-24.2.38-.7-.13-1.55-.93-1.5Z"/>
      </g>
    </g>
  </g>
</svg>